<svg width="33" height="33" viewBox="0 0 33 33" fill="none" xmlns="http://www.w3.org/2000/svg">
<circle cx="16.5" cy="16.5" r="16.5" fill="#4E3D2E"/>
<path d="M16.5 11.1917C18.2333 11.1917 18.45 11.1917 19.1542 11.2458C20.9417 11.3 21.7542 12.1667 21.8083 13.9C21.8625 14.6042 21.8625 14.7667 21.8625 16.5C21.8625 18.2333 21.8625 18.45 21.8083 19.1C21.7542 20.8333 20.8875 21.7 19.1542 21.7542C18.45 21.8083 18.2875 21.8083 16.5 21.8083C14.7667 21.8083 14.55 21.8083 13.9 21.7542C12.1125 21.7 11.3 20.8333 11.2458 19.1C11.1917 18.3958 11.1917 18.2333 11.1917 16.5C11.1917 14.7667 11.1917 14.55 11.2458 13.9C11.3 12.1667 12.1667 11.3 13.9 11.2458C14.55 11.1917 14.7667 11.1917 16.5 11.1917ZM16.5 10C14.7125 10 14.4958 10 13.8458 10.0542C11.4625 10.1625 10.1625 11.4625 10.0542 13.8458C10 14.4958 10 14.7125 10 16.5C10 18.2875 10 18.5042 10.0542 19.1542C10.1625 21.5375 11.4625 22.8375 13.8458 22.9458C14.4958 23 14.7125 23 16.5 23C18.2875 23 18.5042 23 19.1542 22.9458C21.5375 22.8375 22.8375 21.5375 22.9458 19.1542C23 18.5042 23 18.2875 23 16.5C23 14.7125 23 14.4958 22.9458 13.8458C22.8375 11.4625 21.5375 10.1625 19.1542 10.0542C18.5042 10 18.2875 10 16.5 10ZM16.5 13.1417C14.6583 13.1417 13.1417 14.6583 13.1417 16.5C13.1417 18.3417 14.6583 19.8583 16.5 19.8583C18.3417 19.8583 19.8583 18.3417 19.8583 16.5C19.8583 14.6583 18.3417 13.1417 16.5 13.1417ZM16.5 18.6667C15.3083 18.6667 14.3333 17.6917 14.3333 16.5C14.3333 15.3083 15.3083 14.3333 16.5 14.3333C17.6917 14.3333 18.6667 15.3083 18.6667 16.5C18.6667 17.6917 17.6917 18.6667 16.5 18.6667ZM19.9667 12.275C19.5333 12.275 19.2083 12.6 19.2083 13.0333C19.2083 13.4667 19.5333 13.7917 19.9667 13.7917C20.4 13.7917 20.725 13.4667 20.725 13.0333C20.725 12.6 20.4 12.275 19.9667 12.275Z" fill="#F9F8F4"/>
</svg>
