<svg width="33" height="33" viewBox="0 0 33 33" fill="none" xmlns="http://www.w3.org/2000/svg">
<circle cx="16.5" cy="16.5" r="16.5" fill="#4E3D2E"/>
<path d="M14.0305 23C20.0668 23 23.3679 17.999 23.3679 13.6626C23.3679 13.5205 23.365 13.3791 23.3585 13.2383C23.9992 12.7751 24.5563 12.197 24.9956 11.5391C24.4076 11.8004 23.7749 11.9763 23.111 12.0556C23.7885 11.6494 24.3088 11.0064 24.5543 10.2401C23.9201 10.6162 23.2178 10.8894 22.4705 11.0368C21.8714 10.399 21.0185 10 20.0748 10C18.2623 10 16.7925 11.4698 16.7925 13.2814C16.7925 13.539 16.8214 13.7894 16.8775 14.0297C14.1502 13.8927 11.7316 12.5866 10.1132 10.6011C9.83105 11.0859 9.66858 11.6495 9.66858 12.2504C9.66858 13.3889 10.248 14.3941 11.1291 14.9823C10.5908 14.9657 10.085 14.8176 9.64275 14.5717C9.64202 14.5853 9.64202 14.5991 9.64202 14.6135C9.64202 16.203 10.7734 17.53 12.2749 17.8307C11.9993 17.9058 11.7093 17.9462 11.4098 17.9462C11.1984 17.9462 10.9928 17.9251 10.7929 17.8871C11.2106 19.1908 12.4222 20.1397 13.8587 20.1665C12.7353 21.0468 11.3203 21.5713 9.78283 21.5713C9.51813 21.5713 9.25688 21.5562 9 21.5258C10.4523 22.4566 12.1768 23 14.0305 23Z" fill="#F9F8F4"/>
</svg>
