<svg width="168" height="31" viewBox="0 0 168 31" fill="none" xmlns="http://www.w3.org/2000/svg">
<path d="M8.32955 30.9091C7.14015 30.9091 6.09849 30.7538 5.20455 30.4432C4.31061 30.1402 3.55682 29.7235 2.94318 29.1932C2.32955 28.6629 1.85227 28.0682 1.51136 27.4091L3.17045 26.3182C3.42045 26.7576 3.75379 27.1894 4.17045 27.6136C4.5947 28.0379 5.14394 28.3902 5.81818 28.6705C6.5 28.9508 7.33712 29.0909 8.32955 29.0909C9.875 29.0909 11.1212 28.7045 12.0682 27.9318C13.0227 27.1591 13.5 25.9583 13.5 24.3295V20.3977H13.3182C13.0833 20.928 12.7462 21.4583 12.3068 21.9886C11.8674 22.5114 11.2917 22.947 10.5795 23.2955C9.875 23.6439 9 23.8182 7.95455 23.8182C6.56061 23.8182 5.32197 23.4735 4.23864 22.7841C3.16288 22.0947 2.31439 21.1098 1.69318 19.8295C1.07955 18.5417 0.772727 17.0076 0.772727 15.2273C0.772727 13.4621 1.07197 11.9091 1.67045 10.5682C2.27652 9.22727 3.12121 8.18182 4.20455 7.43182C5.28788 6.68182 6.54924 6.30682 7.98864 6.30682C9.05682 6.30682 9.94318 6.49621 10.6477 6.875C11.3523 7.24621 11.9167 7.70833 12.3409 8.26136C12.7727 8.81439 13.1098 9.35227 13.3523 9.875H13.5568V6.54545H15.5341V24.4545C15.5341 25.9318 15.2197 27.1477 14.5909 28.1023C13.9621 29.0568 13.1061 29.7614 12.0227 30.2159C10.9394 30.678 9.70833 30.9091 8.32955 30.9091ZM8.19318 21.9659C9.31439 21.9659 10.2727 21.697 11.0682 21.1591C11.8636 20.6136 12.4735 19.8333 12.8977 18.8182C13.322 17.803 13.5341 16.5947 13.5341 15.1932C13.5341 13.8295 13.3258 12.6212 12.9091 11.5682C12.4924 10.5076 11.8864 9.67424 11.0909 9.06818C10.303 8.45455 9.33712 8.14773 8.19318 8.14773C7.02652 8.14773 6.04167 8.46212 5.23864 9.09091C4.43561 9.7197 3.82955 10.5682 3.42045 11.6364C3.01136 12.697 2.80682 13.8826 2.80682 15.1932C2.80682 16.5265 3.01515 17.7045 3.43182 18.7273C3.84849 19.7424 4.45833 20.5379 5.26136 21.1136C6.06439 21.6818 7.04167 21.9659 8.19318 21.9659ZM25.4333 24.3636C23.9257 24.3636 22.5924 23.9811 21.4333 23.2159C20.2818 22.4508 19.3803 21.3939 18.7288 20.0455C18.0772 18.6894 17.7515 17.125 17.7515 15.3523C17.7515 13.5644 18.0772 11.9924 18.7288 10.6364C19.3803 9.27273 20.2818 8.21212 21.4333 7.45454C22.5924 6.68939 23.9257 6.30682 25.4333 6.30682C26.9409 6.30682 28.2704 6.68939 29.4219 7.45454C30.5734 8.2197 31.475 9.2803 32.1265 10.6364C32.7856 11.9924 33.1151 13.5644 33.1151 15.3523C33.1151 17.125 32.7894 18.6894 32.1378 20.0455C31.4863 21.3939 30.581 22.4508 29.4219 23.2159C28.2704 23.9811 26.9409 24.3636 25.4333 24.3636ZM25.4333 22.5114C26.6454 22.5114 27.6719 22.1856 28.5128 21.5341C29.3538 20.8826 29.9901 20.0152 30.4219 18.9318C30.8613 17.8485 31.081 16.6553 31.081 15.3523C31.081 14.0492 30.8613 12.8523 30.4219 11.7614C29.9901 10.6705 29.3538 9.79545 28.5128 9.13636C27.6719 8.47727 26.6454 8.14773 25.4333 8.14773C24.2288 8.14773 23.2022 8.47727 22.3538 9.13636C21.5128 9.79545 20.8727 10.6705 20.4333 11.7614C20.0015 12.8523 19.7856 14.0492 19.7856 15.3523C19.7856 16.6553 20.0015 17.8485 20.4333 18.9318C20.8727 20.0152 21.5128 20.8826 22.3538 21.5341C23.1947 22.1856 24.2212 22.5114 25.4333 22.5114ZM42.0995 24.3636C40.592 24.3636 39.2586 23.9811 38.0995 23.2159C36.948 22.4508 36.0465 21.3939 35.395 20.0455C34.7435 18.6894 34.4177 17.125 34.4177 15.3523C34.4177 13.5644 34.7435 11.9924 35.395 10.6364C36.0465 9.27273 36.948 8.21212 38.0995 7.45454C39.2586 6.68939 40.592 6.30682 42.0995 6.30682C43.6071 6.30682 44.9367 6.68939 46.0882 7.45454C47.2397 8.2197 48.1412 9.2803 48.7927 10.6364C49.4518 11.9924 49.7814 13.5644 49.7814 15.3523C49.7814 17.125 49.4556 18.6894 48.8041 20.0455C48.1526 21.3939 47.2473 22.4508 46.0882 23.2159C44.9367 23.9811 43.6071 24.3636 42.0995 24.3636ZM42.0995 22.5114C43.3117 22.5114 44.3382 22.1856 45.1791 21.5341C46.02 20.8826 46.6564 20.0152 47.0882 18.9318C47.5276 17.8485 47.7473 16.6553 47.7473 15.3523C47.7473 14.0492 47.5276 12.8523 47.0882 11.7614C46.6564 10.6705 46.02 9.79545 45.1791 9.13636C44.3382 8.47727 43.3117 8.14773 42.0995 8.14773C40.895 8.14773 39.8685 8.47727 39.02 9.13636C38.1791 9.79545 37.5389 10.6705 37.0995 11.7614C36.6677 12.8523 36.4518 14.0492 36.4518 15.3523C36.4518 16.6553 36.6677 17.8485 37.0995 18.9318C37.5389 20.0152 38.1791 20.8826 39.02 21.5341C39.8609 22.1856 40.8874 22.5114 42.0995 22.5114ZM58.2658 24.3636C56.834 24.3636 55.5802 23.9848 54.5044 23.2273C53.4287 22.4697 52.5878 21.4129 51.9817 20.0568C51.3832 18.7008 51.084 17.1212 51.084 15.3182C51.084 13.5227 51.3832 11.9508 51.9817 10.6023C52.5878 9.24621 53.4325 8.19318 54.5158 7.44318C55.5991 6.68561 56.8605 6.30682 58.2999 6.30682C59.3605 6.30682 60.2431 6.49621 60.9476 6.875C61.6522 7.24621 62.2166 7.70833 62.6408 8.26136C63.065 8.81439 63.3946 9.35227 63.6294 9.875H63.8112V0.727272H65.8453V24H63.8681V20.7614H63.6294C63.3946 21.2917 63.0612 21.8371 62.6294 22.3977C62.1976 22.9508 61.6256 23.4167 60.9135 23.7955C60.209 24.1742 59.3264 24.3636 58.2658 24.3636ZM58.5044 22.5114C59.6332 22.5114 60.5953 22.2045 61.3908 21.5909C62.1862 20.9697 62.7923 20.1174 63.209 19.0341C63.6332 17.9432 63.8453 16.6932 63.8453 15.2841C63.8453 13.8902 63.637 12.6591 63.2203 11.5909C62.8037 10.5152 62.1976 9.67424 61.4022 9.06818C60.6067 8.45455 59.6408 8.14773 58.5044 8.14773C57.3378 8.14773 56.3529 8.46591 55.5499 9.10227C54.7544 9.73106 54.1484 10.5833 53.7317 11.6591C53.3226 12.7348 53.1181 13.9432 53.1181 15.2841C53.1181 16.6402 53.3264 17.8636 53.7431 18.9545C54.1597 20.0455 54.7658 20.9129 55.5612 21.5568C56.3643 22.1932 57.3453 22.5114 58.5044 22.5114ZM68.9803 24V6.54545H72.2644V9.31818H72.4463C72.7644 8.37879 73.325 7.64015 74.1281 7.10227C74.9387 6.55682 75.8553 6.28409 76.8781 6.28409C77.0902 6.28409 77.3402 6.29167 77.6281 6.30682C77.9235 6.32197 78.1546 6.34091 78.3213 6.36364V9.61364C78.1849 9.57576 77.9425 9.53409 77.594 9.48864C77.2455 9.43561 76.897 9.40909 76.5485 9.40909C75.7455 9.40909 75.0296 9.57954 74.4008 9.92045C73.7796 10.2538 73.2872 10.7197 72.9235 11.3182C72.5599 11.9091 72.3781 12.5833 72.3781 13.3409V24H68.9803ZM85.9193 24.3523C84.1996 24.3523 82.7186 23.9848 81.4761 23.25C80.2413 22.5076 79.2867 21.4659 78.6125 20.125C77.9458 18.7765 77.6125 17.197 77.6125 15.3864C77.6125 13.5985 77.9458 12.0227 78.6125 10.6591C79.2867 9.29545 80.2261 8.23106 81.4307 7.46591C82.6428 6.70076 84.0595 6.31818 85.6807 6.31818C86.6655 6.31818 87.6201 6.48106 88.5443 6.80682C89.4686 7.13258 90.2981 7.64394 91.033 8.34091C91.7678 9.03788 92.3474 9.94318 92.7716 11.0568C93.1958 12.1629 93.408 13.5076 93.408 15.0909V16.2955H79.533V13.75H90.0784C90.0784 12.8561 89.8966 12.0644 89.533 11.375C89.1693 10.678 88.658 10.1288 87.9989 9.72727C87.3474 9.32576 86.5822 9.125 85.7034 9.125C84.7489 9.125 83.9155 9.35985 83.2034 9.82955C82.4989 10.2917 81.9534 10.8977 81.567 11.6477C81.1883 12.3902 80.9989 13.197 80.9989 14.0682V16.0568C80.9989 17.2235 81.2034 18.2159 81.6125 19.0341C82.0292 19.8523 82.6087 20.4773 83.3511 20.9091C84.0936 21.3333 84.961 21.5455 85.9534 21.5455C86.5974 21.5455 87.1845 21.4545 87.7148 21.2727C88.2451 21.0833 88.7034 20.803 89.0898 20.4318C89.4761 20.0606 89.7716 19.6023 89.9761 19.0568L93.192 19.6364C92.9345 20.5833 92.4724 21.4129 91.8057 22.125C91.1466 22.8295 90.317 23.3788 89.317 23.7727C88.3246 24.1591 87.192 24.3523 85.9193 24.3523ZM102.29 24.3523C100.601 24.3523 99.1462 23.9697 97.9265 23.2045C96.7144 22.4318 95.7825 21.3674 95.131 20.0114C94.4795 18.6553 94.1537 17.1023 94.1537 15.3523C94.1537 13.5795 94.4871 12.0152 95.1537 10.6591C95.8204 9.29545 96.7598 8.23106 97.9719 7.46591C99.1841 6.70076 100.612 6.31818 102.256 6.31818C103.582 6.31818 104.764 6.56439 105.801 7.05682C106.839 7.54167 107.676 8.22348 108.313 9.10227C108.957 9.98106 109.339 11.0076 109.461 12.1818H106.154C105.972 11.3636 105.555 10.6591 104.904 10.0682C104.26 9.47727 103.396 9.18182 102.313 9.18182C101.366 9.18182 100.536 9.43182 99.8242 9.93182C99.1197 10.4242 98.5704 11.1288 98.1765 12.0455C97.7825 12.9545 97.5856 14.0303 97.5856 15.2727C97.5856 16.5455 97.7787 17.6439 98.1651 18.5682C98.5515 19.4924 99.0969 20.2083 99.8015 20.7159C100.514 21.2235 101.351 21.4773 102.313 21.4773C102.957 21.4773 103.54 21.3598 104.063 21.125C104.593 20.8826 105.036 20.5379 105.392 20.0909C105.756 19.6439 106.01 19.1061 106.154 18.4773H109.461C109.339 19.6061 108.972 20.6136 108.358 21.5C107.745 22.3864 106.923 23.0833 105.892 23.5909C104.87 24.0985 103.669 24.3523 102.29 24.3523ZM118.206 24.3523C116.57 24.3523 115.142 23.9773 113.922 23.2273C112.703 22.4773 111.756 21.428 111.081 20.0795C110.407 18.7311 110.07 17.1553 110.07 15.3523C110.07 13.5417 110.407 11.9583 111.081 10.6023C111.756 9.24621 112.703 8.19318 113.922 7.44318C115.142 6.69318 116.57 6.31818 118.206 6.31818C119.843 6.31818 121.271 6.69318 122.49 7.44318C123.71 8.19318 124.657 9.24621 125.331 10.6023C126.006 11.9583 126.343 13.5417 126.343 15.3523C126.343 17.1553 126.006 18.7311 125.331 20.0795C124.657 21.428 123.71 22.4773 122.49 23.2273C121.271 23.9773 119.843 24.3523 118.206 24.3523ZM118.218 21.5C119.278 21.5 120.157 21.2197 120.854 20.6591C121.551 20.0985 122.066 19.3523 122.4 18.4205C122.74 17.4886 122.911 16.4621 122.911 15.3409C122.911 14.2273 122.74 13.2045 122.4 12.2727C122.066 11.3333 121.551 10.5795 120.854 10.0114C120.157 9.44318 119.278 9.15909 118.218 9.15909C117.15 9.15909 116.263 9.44318 115.559 10.0114C114.862 10.5795 114.343 11.3333 114.002 12.2727C113.668 13.2045 113.502 14.2273 113.502 15.3409C113.502 16.4621 113.668 17.4886 114.002 18.4205C114.343 19.3523 114.862 20.0985 115.559 20.6591C116.263 21.2197 117.15 21.5 118.218 21.5ZM127.895 24V6.54545H131.157V9.38636H131.373C131.736 8.42424 132.331 7.67424 133.157 7.13636C133.982 6.59091 134.971 6.31818 136.123 6.31818C137.289 6.31818 138.267 6.59091 139.054 7.13636C139.85 7.68182 140.437 8.43182 140.816 9.38636H140.998C141.414 8.45455 142.077 7.71212 142.986 7.15909C143.895 6.59848 144.979 6.31818 146.236 6.31818C147.82 6.31818 149.111 6.81439 150.111 7.80682C151.119 8.79924 151.623 10.2955 151.623 12.2955V24H148.225V12.6136C148.225 11.4318 147.903 10.5758 147.259 10.0455C146.615 9.51515 145.846 9.25 144.952 9.25C143.846 9.25 142.986 9.59091 142.373 10.2727C141.759 10.947 141.452 11.8144 141.452 12.875V24H138.066V12.3977C138.066 11.4508 137.77 10.6894 137.179 10.1136C136.589 9.53788 135.82 9.25 134.873 9.25C134.229 9.25 133.634 9.42045 133.089 9.76136C132.551 10.0947 132.115 10.5606 131.782 11.1591C131.456 11.7576 131.293 12.4508 131.293 13.2386V24H127.895ZM167.016 10.8068L163.937 11.3523C163.808 10.9583 163.603 10.5833 163.323 10.2273C163.05 9.87121 162.679 9.57954 162.209 9.35227C161.74 9.125 161.152 9.01136 160.448 9.01136C159.486 9.01136 158.683 9.22727 158.039 9.65909C157.395 10.0833 157.073 10.6326 157.073 11.3068C157.073 11.8902 157.289 12.3598 157.721 12.7159C158.152 13.072 158.849 13.3636 159.812 13.5909L162.584 14.2273C164.19 14.5985 165.387 15.1705 166.175 15.9432C166.963 16.7159 167.357 17.7197 167.357 18.9545C167.357 20 167.054 20.9318 166.448 21.75C165.849 22.5606 165.012 23.197 163.937 23.6591C162.868 24.1212 161.63 24.3523 160.221 24.3523C158.266 24.3523 156.671 23.9356 155.437 23.1023C154.202 22.2614 153.444 21.0682 153.164 19.5227L156.448 19.0227C156.652 19.8788 157.073 20.5265 157.709 20.9659C158.346 21.3977 159.175 21.6136 160.198 21.6136C161.312 21.6136 162.202 21.3826 162.868 20.9205C163.535 20.4508 163.868 19.8788 163.868 19.2045C163.868 18.6591 163.664 18.2008 163.255 17.8295C162.853 17.4583 162.236 17.178 161.402 16.9886L158.448 16.3409C156.819 15.9697 155.615 15.3788 154.834 14.5682C154.062 13.7576 153.675 12.7311 153.675 11.4886C153.675 10.4583 153.963 9.55682 154.539 8.78409C155.115 8.01136 155.91 7.40909 156.925 6.97727C157.94 6.53788 159.103 6.31818 160.414 6.31818C162.3 6.31818 163.785 6.72727 164.868 7.54545C165.952 8.35606 166.668 9.44318 167.016 10.8068Z" fill="#4E3D2E"/>
</svg>
