<svg width="125" height="292" viewBox="0 0 125 292" fill="none" xmlns="http://www.w3.org/2000/svg">
<path d="M123.823 93.0219C123.541 93.9972 124.023 94.916 124.023 95.8782C124.008 160.01 124.01 224.143 124.002 288.274C124.002 289.274 123.865 290.273 123.817 291.272C123.795 291.739 123.528 291.93 123.126 291.934C119.833 291.954 116.54 291.958 113.247 291.969C112.887 291.969 112.715 291.808 112.722 291.446C112.728 291.12 112.717 290.794 112.717 290.468C112.717 273.458 112.757 256.449 112.683 239.437C112.667 236.146 112.637 232.81 111.091 229.708C107.917 223.344 102.902 219.629 95.7903 218.969C86.9194 218.144 79.4343 223.817 76.8951 231.233C76.2522 233.114 75.8352 235.045 75.8373 237.054C75.8438 254.933 75.8308 272.811 75.8656 290.69C75.8656 291.745 75.5919 292.013 74.5471 291.999C69.7707 291.941 64.992 291.976 60.2156 291.971C59.7464 291.971 59.2707 291.971 58.808 291.897C58.3019 291.815 57.874 291.546 58.0804 290.942C58.3345 290.197 58.2389 289.439 58.2389 288.691C58.2476 224.343 58.2476 159.992 58.2476 95.6436C58.2476 94.7531 58.2672 93.8647 58.2802 92.9741C63.8147 92.985 69.3471 93.0002 74.8816 93.0045C91.1941 93.0132 107.509 93.0176 123.821 93.0219H123.823ZM100.091 125.984C99.8304 126.023 99.5176 125.966 99.4372 126.338C96.0726 126.344 92.7059 126.344 89.3413 126.357C87.2648 126.366 85.2664 126.731 84.0718 128.627C82.5752 131.003 82.3536 133.623 83.1812 136.299C83.9914 138.916 85.8724 140.178 88.5463 140.235C91.874 140.306 95.2016 140.296 98.5293 140.315C100.104 140.324 100.137 140.311 100.386 141.862C100.467 142.363 100.606 142.515 101.11 142.505C101.616 142.492 101.709 142.266 101.705 141.836C101.692 140.243 101.705 138.651 101.698 137.059C101.698 136.788 101.781 136.44 101.316 136.444C100.966 136.447 100.567 136.342 100.46 136.855C100.423 137.031 100.376 137.207 100.341 137.383C100.174 138.26 99.7761 138.688 98.753 138.64C96.6222 138.543 94.4848 138.617 92.3475 138.608C90.7705 138.601 89.1936 138.671 87.621 138.412C86.3416 138.202 85.3099 137.565 84.7603 136.464C83.0031 132.952 85.2165 129.25 89.1349 129.02C92.3171 128.833 95.5014 128.988 98.6857 128.929C99.5893 128.912 100.384 128.927 100.217 130.2C100.189 130.412 100.404 130.649 100.48 130.884C100.621 131.325 100.979 131.207 101.288 131.22C101.737 131.24 101.696 130.903 101.696 130.625C101.701 128.707 101.701 126.789 101.696 124.871C101.696 124.587 101.74 124.246 101.29 124.283C100.966 124.311 100.615 124.133 100.391 124.637C100.191 125.084 100.265 125.551 100.091 125.979V125.984ZM92.2693 122.221C92.5951 122.721 92.9231 122.721 93.2489 122.221C93.7159 122.178 94.1916 122.176 94.6499 122.085C98.8421 121.251 101.409 118.97 101.657 114.641C101.824 111.724 101.698 108.789 101.694 105.863C101.694 105.572 101.824 105.162 101.286 105.168C100.906 105.175 100.556 105.081 100.349 105.631C100.193 106.048 100.291 106.485 100.091 106.869C99.8304 106.908 99.5176 106.852 99.4372 107.223C95.206 107.23 90.9747 107.204 86.7456 107.26C85.5075 107.277 84.4541 107.295 84.3911 105.655C84.3737 105.212 84.0587 105.001 83.5613 105.068C82.9988 105.144 83.1139 105.546 83.1139 105.883C83.1073 108.413 83.1139 110.946 83.1095 113.477C83.103 116.383 83.8437 118.955 86.4307 120.642C88.1966 121.794 90.1841 122.211 92.2693 122.219V122.221ZM84.0196 187.802C83.3376 187.73 83.0639 187.988 83.0922 188.718C83.1465 190.197 83.1073 191.679 83.1095 193.16C83.1095 193.479 83.0639 193.823 83.5483 193.87C84.0001 193.914 84.3281 193.823 84.4258 193.319C84.4801 193.036 84.5931 192.763 84.6278 192.478C84.6995 191.913 84.971 191.714 85.5597 191.718C89.7496 191.744 93.9375 191.735 98.1274 191.74L98.1492 191.792C98.0688 192.168 97.7017 192.237 97.4519 192.411C94.2459 194.622 91.0268 196.818 87.8121 199.018C86.4089 199.978 85.0231 200.96 83.5982 201.886C82.8206 202.389 83.0813 203.119 83.166 203.74C83.2485 204.351 83.8784 204.068 84.2564 204.071C89.1045 204.099 93.9548 204.136 98.803 204.079C99.8152 204.068 100.25 204.403 100.345 205.341C100.36 205.485 100.373 205.639 100.436 205.763C100.549 205.991 100.506 206.486 100.908 206.314C101.214 206.184 101.764 206.271 101.727 205.561C101.646 204.01 101.705 202.45 101.698 200.893C101.698 200.621 101.781 200.274 101.325 200.265C100.969 200.256 100.575 200.174 100.458 200.673C100.426 200.815 100.367 200.954 100.36 201.095C100.313 202.166 99.7348 202.396 98.7269 202.372C95.8706 202.305 93.01 202.361 90.1515 202.368C89.4521 202.368 88.7505 202.368 88.0511 202.368C88.2835 201.92 88.5593 201.712 88.8439 201.516C92.0477 199.348 95.2537 197.185 98.4533 195.013C99.5241 194.285 101.008 193.751 101.525 192.734C102.068 191.664 101.683 190.121 101.703 188.783C101.703 188.746 101.703 188.712 101.703 188.675C101.709 188.275 101.774 187.88 101.131 187.897C100.628 187.91 100.354 187.965 100.358 188.581C100.365 189.615 99.876 190.035 98.7487 190.013C94.878 189.939 91.0051 189.987 87.1323 189.987C85.6538 189.987 84.701 189.298 84.2738 187.921C84.2434 187.812 84.213 187.704 84.1825 187.593C84.1282 187.66 84.0739 187.728 84.0196 187.797V187.802ZM93.2967 155.557C93.7072 157.155 94.6369 158.172 96.1465 158.626C98.8746 159.445 101.544 157.338 101.659 154.138C101.766 151.143 101.696 148.139 101.698 145.139C101.698 144.831 101.785 144.47 101.253 144.47C100.862 144.47 100.532 144.496 100.419 144.944C100.384 145.083 100.36 145.226 100.352 145.367C100.284 146.438 99.7239 146.695 98.677 146.677C94.5587 146.608 90.4339 146.582 86.3177 146.69C85.0514 146.723 84.3954 146.334 84.352 145.155C84.3237 144.394 83.9349 144.464 83.4549 144.477C82.6729 144.499 82.964 145.124 83.0227 145.433C83.1226 145.971 83.0987 146.497 83.1073 147.029C83.1443 149.52 83.1725 152.014 83.2051 154.505C83.2377 156.962 84.6278 158.563 86.6718 159.582C88.3725 160.429 91.3418 159.215 92.4278 157.39C92.7558 156.838 92.9839 156.226 93.2967 155.555V155.557ZM83.1073 169.054C83.1073 171.15 83.1313 173.249 83.0943 175.345C83.0835 176.001 83.2616 176.226 83.9414 176.2C85.349 176.148 86.7608 176.2 88.1705 176.177C88.5376 176.17 89.0915 176.424 89.0785 175.651C89.0698 175.084 89.1197 174.615 88.3182 174.537C87.3973 174.448 86.5002 174.128 85.5792 174.046C84.9276 173.987 84.7017 173.787 84.7147 173.133C84.7495 171.363 84.7647 169.589 84.7082 167.818C84.6843 167.047 84.9232 166.856 85.677 166.863C89.7258 166.899 93.7767 166.88 97.8255 166.88C99.8608 166.88 99.8782 166.876 100.412 168.87C100.545 169.367 100.786 169.473 101.251 169.46C101.777 169.447 101.701 169.106 101.701 168.794C101.705 166.697 101.707 164.599 101.696 162.503C101.696 162.277 101.818 161.938 101.457 161.882C101.184 161.841 100.754 161.81 100.638 161.96C100.436 162.225 100.402 162.629 100.336 162.981C100.176 163.854 99.8238 164.289 98.7791 164.269C94.7672 164.191 90.7532 164.241 86.7391 164.234C86.094 164.234 85.3272 164.382 84.845 164.089C84.5083 163.882 84.5496 163.042 84.4388 162.479C84.352 162.032 84.1695 161.812 83.646 161.83C82.9901 161.851 83.1095 162.273 83.1095 162.651C83.1052 164.784 83.1073 166.917 83.1073 169.05V169.054ZM92.43 183.101C94.1677 183.101 95.9032 183.101 97.6409 183.101C99.7435 183.101 99.7674 183.092 100.46 185.065C100.63 185.545 100.912 185.521 101.279 185.527C101.724 185.534 101.698 185.236 101.698 184.943C101.698 182.88 101.701 180.818 101.698 178.755C101.698 178.481 101.774 178.138 101.312 178.144C100.964 178.151 100.558 178.038 100.452 178.551C100.415 178.727 100.356 178.905 100.352 179.083C100.332 180.312 99.6718 180.545 98.5358 180.523C94.702 180.447 90.8639 180.497 87.028 180.492C86.3416 180.492 85.5575 180.664 84.9993 180.388C84.4432 180.112 84.617 179.222 84.4085 178.62C84.3846 178.553 84.3585 178.483 84.3411 178.414C84.2325 177.958 83.8698 178.055 83.5548 178.058C83.153 178.058 83.1073 178.333 83.1073 178.648C83.1073 180.747 83.1182 182.847 83.0987 184.945C83.0943 185.451 83.3332 185.514 83.759 185.54C84.4454 185.582 84.378 185.047 84.4714 184.676C84.8646 183.108 84.8516 183.106 86.4567 183.106C88.4464 183.106 90.4382 183.106 92.4278 183.106L92.43 183.101Z" fill="#FFCA64"/>
<path d="M29.1561 172.536C29.1561 211.299 29.1561 250.063 29.1735 288.826C29.1735 289.506 28.8542 290.247 29.4255 290.903C29.5515 291.048 29.3712 291.413 29.0345 291.495C28.4719 291.632 27.9072 291.706 27.3229 291.704C18.9625 291.693 10.602 291.698 2.24162 291.698C-0.0412551 291.698 -0.0955502 291.693 0.0499806 289.43C0.102111 288.622 0.0173938 287.833 0.0173938 287.034C0.021738 209.905 0.0238931 132.776 0 55.6465C0 54.7581 0.282386 54.2932 1.04479 53.8936C6.20136 51.1828 11.6555 50.0185 17.4659 50.6159C21.2714 51.0068 24.8706 52.0603 28.2547 53.8762C28.9281 54.2368 29.1431 54.6299 29.1431 55.3771C29.1236 94.4293 29.1257 133.482 29.1257 172.534H29.1605L29.1561 172.536ZM8.63193 219.582C8.59501 222.084 8.86436 225.611 9.59418 229.091C10.122 231.606 10.7584 234.104 12.2811 236.244C13.7386 238.294 15.5523 238.272 17.0249 236.255C17.935 235.008 18.5107 233.609 18.9255 232.145C21.2062 224.086 21.2041 215.948 19.6662 207.778C19.1905 205.252 18.4868 202.774 16.9077 200.66C15.5827 198.888 13.8884 198.857 12.4874 200.563C11.6273 201.612 11.0864 202.835 10.652 204.107C9.05767 208.786 8.6363 213.628 8.62978 219.582H8.63193ZM11.4513 102.677C11.321 102.707 11.2472 102.744 11.182 102.733C10.3414 102.586 9.30964 102.623 9.16194 101.495C9.03378 100.513 8.70362 99.3926 10.109 98.8539C10.6129 98.6606 10.6585 98.0372 10.1959 97.6918C9.68542 97.3095 9.14238 97.5876 8.721 97.9612C7.6306 98.9321 7.48941 100.192 7.71531 101.539C7.93469 102.846 8.69493 103.767 9.9743 104.026C12.6916 104.575 15.4415 104.386 18.174 104.097C18.9299 104.017 19.2144 103.487 18.6106 102.901C18.2783 102.577 18.4042 102.397 18.5063 102.086C18.9733 100.683 18.8387 99.3622 17.7743 98.2653C16.5232 96.975 14.9701 96.8925 13.3519 97.3421C11.9097 97.7418 11.1429 98.7627 10.9148 100.218C10.7758 101.1 11.0538 101.899 11.4492 102.677H11.4513ZM16.1865 137.771C16.1865 137.771 16.1865 137.761 16.1865 137.754C14.7421 137.754 13.2976 137.763 11.8554 137.75C11.3384 137.745 10.6781 137.91 10.8736 138.423C11.2667 139.448 10.6824 140.306 10.6889 141.242C10.6976 142.587 11.2624 143.608 12.47 144.229C14.3576 145.2 17.0749 144.544 18.3021 142.811C18.7757 142.144 18.9994 141.401 18.8083 140.563C18.5215 139.303 18.5324 139.298 19.8747 139.298C20.0919 139.298 20.3092 139.292 20.5242 139.298C21.0759 139.316 21.5799 139.244 21.5777 138.536C21.5777 137.828 21.0607 137.771 20.5177 137.771C19.0732 137.776 17.6288 137.771 16.1865 137.771ZM13.9449 115.636C13.9666 115.636 13.9883 115.636 14.0101 115.636C14.0101 116.431 13.9688 117.228 14.0231 118.018C14.0731 118.761 14.5205 119.104 15.2829 118.976C16.9945 118.692 18.237 117.571 18.6128 115.972C18.982 114.395 18.3347 112.708 16.9989 111.78C15.5761 110.792 13.8667 110.761 12.4223 111.702C11.1755 112.512 10.0243 115.803 10.6802 117.039C10.8909 117.434 11.1385 117.927 11.5664 118.22C11.8271 118.401 12.0921 118.475 12.3701 118.294C12.6634 118.105 12.8589 117.836 12.7546 117.475C12.6742 117.202 12.5026 116.956 12.3962 116.689C11.9075 115.455 12.2615 113.718 13.1369 113.094C13.3324 112.955 13.5626 112.708 13.8015 112.879C13.9254 112.968 13.934 113.264 13.9384 113.466C13.9536 114.189 13.9449 114.912 13.9449 115.636ZM13.8015 85.691C14.0209 86.1406 13.9362 86.5403 13.9449 86.9269C13.9688 88.1911 13.9775 89.4574 13.9927 90.7216C14.0014 91.5057 14.3402 91.9705 15.183 91.888C17.4224 91.6708 18.9929 89.6312 18.6801 87.3613C18.3868 85.224 16.1213 83.5797 14.0122 83.9728C11.2841 84.4811 9.86352 87.5959 11.0842 90.3936C11.3058 90.904 11.5665 91.484 12.2528 91.2211C13.0304 90.9214 12.7437 90.3697 12.4831 89.7941C11.7511 88.1672 12.3028 86.4425 13.8015 85.6888V85.691ZM13.9427 150.583C13.9601 150.583 13.9775 150.583 13.9949 150.583C13.9949 151.306 13.9862 152.029 13.997 152.752C14.0101 153.639 14.4705 153.962 15.3372 153.847C17.4832 153.56 18.9733 151.599 18.6801 149.412C18.4629 147.798 17.1466 146.375 15.5566 146.038C13.8624 145.68 12.1182 146.397 11.3275 147.776C10.4543 149.299 10.4804 151.936 11.3862 152.954C11.6338 153.232 11.9248 153.467 12.3289 153.219C12.7133 152.985 12.8871 152.672 12.6829 152.22C12.5482 151.925 12.4092 151.629 12.3137 151.321C11.9357 150.092 12.3723 148.504 13.2129 147.963C13.6473 147.685 13.9514 147.642 13.9449 148.306C13.9362 149.066 13.9449 149.827 13.9449 150.585L13.9427 150.583ZM13.517 162.06C14.4554 162.029 15.3872 162.045 16.3255 161.89C18.528 161.532 19.5098 159.636 18.4607 157.655C17.7808 156.371 16.6579 155.611 15.3351 155.12C13.9167 154.594 12.4136 154.935 11.5599 155.939C10.6433 157.018 10.4891 158.569 11.1928 159.892C11.3601 160.207 11.6533 160.45 11.0951 160.7C10.7845 160.839 10.6694 161.187 10.8149 161.541C10.9691 161.921 11.271 162.069 11.675 162.062C12.2898 162.051 12.9045 162.06 13.517 162.06ZM18.0828 77.5564C19.0015 77.5564 19.8248 77.5543 20.6458 77.5564C21.2019 77.5586 21.7058 77.4261 21.7341 76.7767C21.7645 76.0599 21.2062 76.0229 20.6741 76.0273C17.7504 76.0512 14.8268 76.0729 11.9031 76.1098C11.3319 76.1163 10.715 76.238 10.7932 76.97C10.8649 77.652 11.4405 77.6955 12.0378 77.6651C13.1912 77.6042 14.3467 77.5869 15.5001 77.5912C16.4602 77.5934 17.1357 78.2211 17.2487 79.1486C17.3768 80.2042 17.0141 80.6951 15.8563 80.9471C15.4741 81.0318 15.0679 81.0601 14.6747 81.047C13.7016 81.0144 12.7329 80.9362 11.7598 80.8906C11.2776 80.8689 10.8844 81.034 10.8323 81.577C10.7823 82.1092 11.0756 82.3416 11.6012 82.4002C13.2542 82.5892 14.9093 82.7565 16.5514 82.3546C17.985 82.0027 18.7518 81.0839 18.856 79.7025C18.9169 78.9075 18.4411 78.2863 18.0806 77.5521L18.0828 77.5564ZM10.6889 166.476C10.639 166.969 10.791 167.495 10.9539 168.007C11.3406 169.223 12.2203 170.012 13.1217 170.001C14.2034 169.986 15.0461 169.213 15.3915 167.883C15.5544 167.256 15.6717 166.617 15.8129 165.985C15.9085 165.561 16.0866 165.229 16.6101 165.309C17.1118 165.385 17.2248 165.746 17.2443 166.176C17.2791 167.001 17.1292 167.751 16.458 168.326C16.054 168.672 15.7065 169.104 16.1778 169.617C16.7143 170.201 17.1401 169.751 17.5528 169.382C18.515 168.518 18.8321 167.375 18.7909 166.156C18.7387 164.671 17.8981 163.832 16.5406 163.728C15.3893 163.639 14.7225 164.247 14.3294 165.774C14.16 166.437 14.0448 167.114 13.8624 167.773C13.7755 168.09 13.5648 168.366 13.1825 168.381C12.7937 168.396 12.6156 168.111 12.4635 167.818C11.8075 166.547 12.1681 165.459 13.454 164.934C13.8971 164.753 14.1165 164.471 14.0231 164.03C13.9145 163.522 13.5452 163.378 13.0326 163.452C11.4492 163.678 10.6868 164.627 10.6911 166.478L10.6889 166.476ZM13.5235 127.115C14.5726 127.07 15.5067 127.133 16.4428 126.954C18.5433 126.555 19.4903 124.619 18.4585 122.725C17.8265 121.561 16.8208 120.82 15.6218 120.325C14.0166 119.663 12.6525 119.889 11.636 120.968C10.6368 122.028 10.4739 123.481 11.2037 124.989C11.3406 125.271 11.6121 125.501 11.1342 125.749C10.7497 125.949 10.7497 126.344 10.8844 126.702C11.0408 127.115 11.4122 127.128 11.7902 127.119C12.4049 127.106 13.0174 127.115 13.5192 127.115H13.5235ZM21.595 70.8816H21.5907C21.5907 69.6891 21.5994 68.4966 21.5864 67.3041C21.582 66.8089 21.367 66.4505 20.8087 66.4787C20.3048 66.5048 20.1549 66.8567 20.1506 67.302C20.1463 67.9167 20.131 68.5314 20.1484 69.1439C20.1658 69.7868 19.9139 70.0019 19.2448 69.9888C16.8251 69.9389 14.4032 69.9563 11.9813 69.9519C11.4709 69.9519 10.8888 69.9041 10.8518 70.6296C10.8127 71.3899 11.371 71.4746 11.9553 71.4746C13.7994 71.4746 15.6413 71.4746 17.4854 71.4746C19.2144 71.4746 20.1021 72.3173 20.1484 74.0029C20.1484 74.0746 20.1484 74.1484 20.1484 74.2201C20.1549 74.7414 20.2961 75.1932 20.9174 75.1715C21.4799 75.1519 21.5907 74.7132 21.5929 74.244C21.595 73.1232 21.5929 72.0024 21.5929 70.8838L21.595 70.8816ZM14.918 171.6V171.635C14.375 171.635 13.832 171.613 13.2911 171.639C11.7945 171.713 10.9908 172.51 10.8106 174C10.7541 174.473 10.8953 174.793 11.321 174.945C11.7902 175.114 12.1811 174.845 12.242 174.437C12.444 173.075 13.3975 173.09 14.4119 173.12C15.0635 173.14 15.7152 173.12 16.3668 173.125C16.8773 173.129 17.4072 173.079 17.3986 173.865C17.3942 174.224 17.6766 174.439 18.0523 174.463C18.4846 174.493 18.8104 174.256 18.8278 173.87C18.8647 173.085 19.373 173.168 19.8813 173.179C20.4373 173.19 21.0846 173.222 21.0477 172.434C21.0151 171.73 20.4156 171.648 19.8378 171.656C19.2687 171.665 18.7865 171.719 18.4781 170.974C18.2413 170.401 17.505 170.494 17.3008 171.068C17.0901 171.654 16.7773 171.628 16.3321 171.606C15.8629 171.582 15.3915 171.602 14.9202 171.602L14.918 171.6ZM15.0787 129.087C15.0787 129.07 15.0766 129.053 15.0744 129.037C14.3576 129.103 13.6365 129.133 12.9262 129.242C11.6121 129.441 10.8974 130.282 10.8344 131.587C10.8127 132.033 10.9083 132.396 11.3818 132.506C11.8597 132.617 12.2072 132.326 12.2659 131.913C12.4375 130.682 13.2933 130.61 14.2447 130.623C15.0027 130.634 15.7608 130.617 16.5167 130.627C16.9706 130.634 17.3855 130.688 17.3833 131.32C17.3812 131.737 17.6787 131.976 18.0654 132.044C18.5172 132.122 18.7952 131.779 18.8234 131.438C18.8777 130.749 19.2861 130.747 19.7857 130.771C20.3874 130.801 21.0629 130.779 21.0325 129.974C21.0042 129.266 20.37 129.235 19.8009 129.248C19.2752 129.261 18.8191 129.324 18.5324 128.623C18.2826 128.01 17.5767 127.958 17.29 128.612C17.0358 129.192 16.6904 129.105 16.2691 129.094C15.8716 129.083 15.4762 129.094 15.0787 129.094V129.087ZM14.9224 106.224V106.252C13.8754 106.252 12.8284 106.261 11.7837 106.248C11.2385 106.241 10.8366 106.411 10.8323 107.015C10.8279 107.629 11.245 107.783 11.7837 107.775C12.974 107.757 14.1665 107.779 15.3568 107.736C16.3386 107.701 16.8186 108.205 16.9924 109.098C17.0619 109.452 17.1205 109.808 17.1488 110.166C17.1835 110.601 17.3833 110.816 17.8243 110.84C18.3282 110.868 18.5563 110.581 18.6388 110.151C18.767 109.482 18.6128 108.85 18.2392 108.294C18.0328 107.988 17.846 107.805 18.3912 107.657C18.7648 107.555 18.9516 107.195 18.8691 106.791C18.7691 106.302 18.3825 106.22 17.9546 106.22C16.9446 106.22 15.9324 106.22 14.9224 106.22V106.224Z" fill="#FF500D"/>
<path d="M34.1085 291.298C33.5047 292.165 32.7488 291.524 32.0971 291.435C31.4368 291.346 31.9603 290.82 31.9473 290.49C31.9321 290.093 31.9473 289.693 31.9473 289.295C31.9473 194.424 31.9495 99.5536 31.9169 4.68268C31.9169 3.41417 32.2927 2.72779 33.5785 2.4541C33.7349 3.12745 33.8739 3.78994 33.8739 4.50022C33.8653 27.4854 33.8739 50.4706 33.8414 73.4536C33.8414 74.5093 34.1064 74.759 35.149 74.7504C41.3025 74.6961 47.4561 74.6961 53.6097 74.7504C54.6067 74.759 54.7739 74.4615 54.7739 73.5427C54.7478 50.4141 54.7522 27.2834 54.7696 4.15486C54.7696 3.74867 54.4807 2.97758 54.9955 2.97758C55.6905 2.97758 55.3951 3.77474 55.3951 4.22219C55.4082 50.4445 55.4082 96.6669 55.4082 142.891C55.4082 191.901 55.4082 240.91 55.4038 289.919C55.4038 290.364 55.495 290.831 55.2691 291.37C54.8304 291.007 54.9802 290.592 54.9802 290.249C54.9846 267.372 54.9933 244.498 55.0259 221.621C55.0259 220.865 54.8369 220.653 54.068 220.657C47.7341 220.69 41.4003 220.685 35.0642 220.659C34.3518 220.657 34.0694 220.779 34.0694 221.584C34.0933 244.57 34.089 267.555 34.0911 290.538C34.0911 290.646 34.1063 290.755 34.1129 290.861C33.8805 291.005 33.8805 291.148 34.1129 291.292L34.1085 291.298ZM47.0521 145.2C49.5283 145.055 51.9154 145.229 54.2895 144.97C54.8065 144.914 55.2431 144.846 55.2127 144.192C55.1779 143.452 54.6392 143.476 54.1179 143.489C50.0387 143.589 45.9573 143.693 41.8781 143.788C41.0462 143.808 40.2056 143.854 39.6083 143.074C39.4041 142.807 39.0848 142.831 38.8285 143.026C38.5287 143.256 38.4788 143.578 38.6699 143.893C38.7981 144.106 38.961 144.327 39.163 144.457C39.6561 144.775 39.6973 145.018 39.3129 145.53C37.9727 147.32 37.8945 149.26 38.9719 151.193C39.9298 152.913 41.5024 153.478 43.4203 153.398C45.4491 153.313 46.9044 152.394 47.6994 150.568C48.4987 148.734 48.1229 146.964 47.0521 145.198V145.2ZM39.1282 205.046C37.7338 209.084 38.0748 211.417 40.4511 212.744C42.5645 213.926 45.2123 213.791 47.0977 211.945C47.7689 211.287 48.1207 210.452 48.225 209.538C48.4205 207.789 48.0968 206.186 46.6459 204.948C46.9543 204.762 47.152 204.666 47.3193 204.536C47.6711 204.26 48.1989 204.06 47.8145 203.437C47.4517 202.846 47.076 202.946 46.5742 203.298C46.2397 203.532 45.8596 203.749 45.3904 203.741C43.4746 203.708 41.5588 203.721 39.643 203.689C38.053 203.662 36.4631 203.602 34.8731 203.549C34.3475 203.532 34.026 203.756 34.013 204.288C33.9978 204.859 34.291 205.076 34.884 205.059C36.2546 205.018 37.6295 205.046 39.1261 205.046H39.1282ZM40.3077 125.395C40.3077 125.356 40.3077 125.315 40.3077 125.276C38.5005 125.276 36.6933 125.28 34.884 125.273C34.3822 125.273 34.0064 125.43 34.0195 125.99C34.0325 126.531 34.3887 126.703 34.8992 126.714C35.8744 126.737 36.8475 126.803 37.8228 126.85C39.1239 126.913 39.1652 126.931 38.6895 128.099C37.1951 131.781 39.6539 135.426 43.6745 135.135C45.4599 135.007 47.0173 134.346 47.7971 132.617C48.5878 130.867 48.6008 129.062 47.3692 127.491C46.837 126.813 46.6502 126.472 47.556 126.066C47.9578 125.886 48.1186 125.506 47.8167 125.074C47.5364 124.674 47.2215 124.585 46.8218 124.928C46.3223 125.356 45.7162 125.404 45.0863 125.397C43.4942 125.382 41.902 125.393 40.3099 125.393L40.3077 125.395ZM51.9306 97.905C52.1109 96.9101 51.7351 95.9153 51.0031 95.0486C49.3241 93.059 46.2984 93.4522 45.1971 95.848C44.628 97.0904 44.2805 98.4328 43.7396 99.6904C43.3204 100.67 42.4798 101.039 41.422 100.872C40.3902 100.709 39.9927 99.938 39.8038 99.0583C39.3867 97.1273 40.4532 95.6416 42.4363 95.3745C43.0033 95.2984 43.303 95.0899 43.2705 94.4904C43.2379 93.8779 42.8252 93.8388 42.3582 93.8344C40.5966 93.8214 39.0501 95.0291 38.544 96.8211C37.9553 98.9063 38.683 101.146 40.2295 102.006C42.0106 102.999 44.1219 102.301 45.045 100.312C45.5598 99.2039 45.8618 97.9984 46.3027 96.8537C46.8479 95.4396 47.9883 94.9314 49.2372 95.5004C50.2907 95.9805 50.8141 97.1534 50.6339 98.6391C50.5014 99.7295 49.7194 100.635 48.6377 100.783C47.9817 100.872 47.4127 100.983 47.6147 101.784C47.8188 102.597 48.5226 102.36 49.0591 102.24C50.8424 101.841 51.9219 100.238 51.9285 97.9028L51.9306 97.905ZM38.4223 175.751C38.3246 177.063 38.355 178.136 38.8741 179.05C39.5192 180.186 40.6205 180.716 41.9259 180.714C43.379 180.714 44.4195 179.96 44.9994 178.688C45.5207 177.543 45.8487 176.311 46.3136 175.138C46.6611 174.261 47.1868 173.492 48.2924 173.616C49.7216 173.774 50.5231 174.569 50.6426 175.836C50.8272 177.808 50.0192 178.879 48.0382 179.213C47.6451 179.281 47.2432 179.304 47.3974 179.8C47.5256 180.217 47.5712 180.751 48.3488 180.651C50.1256 180.427 51.3203 179.502 51.8198 177.838C52.3412 176.105 52.1022 174.461 50.7555 173.09C49.1612 171.465 46.3136 171.667 45.2948 173.922C44.9842 174.608 44.767 175.34 44.5085 176.049C44.224 176.826 44.0415 177.645 43.5506 178.336C43.038 179.059 42.3278 179.333 41.4698 179.205C40.6748 179.083 40.2121 178.566 39.945 177.832C39.1999 175.781 40.2751 173.961 42.4668 173.629C42.9099 173.561 43.24 173.479 43.2705 172.96C43.2943 172.554 43.1857 172.187 42.7535 172.141C42.2257 172.084 41.5979 171.969 41.1657 172.187C39.6083 172.962 38.4006 174.068 38.4201 175.749L38.4223 175.751ZM43.2053 191.599C41.2786 191.586 39.6713 192.161 38.8524 194.075C38.6786 194.483 37.9944 194.64 38.1443 195.026C38.4223 195.752 38.2333 196.453 38.2594 197.157C38.3137 198.654 39.1456 199.646 40.236 200.509C40.5618 200.767 40.9072 200.847 41.1852 200.487C41.4328 200.163 41.4046 199.811 41.0788 199.522C40.918 199.379 40.753 199.236 40.5988 199.084C38.7655 197.285 39.3737 194.179 41.7348 193.134C42.5689 192.765 42.8882 192.919 42.8903 193.873C42.8947 195.967 42.9902 198.058 43.012 200.152C43.0185 200.871 43.2096 201.154 44.0176 201.112C46.2636 201.002 47.884 199.666 48.225 197.498C48.7615 194.092 46.6481 191.609 43.2075 191.601L43.2053 191.599ZM48.2706 118.275C48.2815 115.532 46.5047 113.462 43.9243 113.214C41.0354 112.936 38.7959 114.554 38.3376 117.308C38.0183 119.228 38.494 120.892 40.11 122.124C40.4576 122.389 40.8333 122.563 41.1657 122.191C41.4806 121.839 41.3785 121.457 41.0245 121.151C40.8876 121.034 40.7486 120.918 40.6183 120.792C38.8741 119.105 39.3063 116.114 41.4567 114.984C42.4754 114.448 42.8882 114.665 42.9208 115.823C42.9751 117.773 43.012 119.726 43.0054 121.676C43.0054 122.45 43.2574 122.773 44.0719 122.782C46.5308 122.81 48.2576 120.986 48.2706 118.277V118.275ZM40.5488 160.318C41.3221 159.334 42.2474 158.832 43.1988 158.424C44.6541 157.799 46.142 157.255 47.6233 156.695C48.0556 156.532 48.3141 156.317 48.1164 155.818C47.9578 155.418 47.6928 155.257 47.2671 155.39C44.4738 156.261 41.6783 157.14 39.5171 159.256C39.0761 159.688 38.7373 159.73 38.1964 159.501C37.0409 159.013 35.8484 158.615 34.682 158.148C34.1845 157.948 33.6937 157.707 33.4156 158.383C33.1528 159.021 33.5785 159.291 34.1107 159.482C35.9027 160.125 37.7012 160.75 39.4758 161.439C41.9737 162.408 44.5607 163.048 47.1628 163.641C47.6581 163.754 48.0469 163.735 48.1968 163.203C48.2967 162.851 48.2967 162.453 47.834 162.31C47.102 162.084 46.3657 161.873 45.6272 161.674C43.972 161.226 42.3147 160.789 40.5445 160.316L40.5488 160.318ZM44.0785 184.24C43.1314 184.183 42.1996 184.333 41.2678 184.442C40.8399 184.491 40.412 184.576 39.9949 184.689C38.8415 185.004 38.0683 186.394 38.3267 187.654C38.5679 188.831 39.6126 189.552 40.8355 189.416C41.1157 189.385 41.3416 189.309 41.4437 189.053C41.5371 188.816 41.561 188.551 41.3894 188.33C41.1831 188.065 40.8529 188.169 40.5857 188.088C40.1253 187.952 39.6452 187.782 39.6126 187.213C39.5779 186.62 39.958 186.303 40.4989 186.144C41.5458 185.838 42.6232 185.623 43.6962 185.775C44.7735 185.927 46.3157 185.675 45.9161 187.661C45.8683 187.897 46.1507 188.091 46.4461 188.095C46.635 188.099 46.8457 188.065 46.8827 187.865C46.937 187.585 46.9348 187.291 46.9326 187.002C46.9261 186.247 47.1498 185.864 48.0295 186.081C48.7963 186.27 49.6021 186.299 50.3906 186.399C50.8793 186.459 51.2551 186.37 51.3094 185.775C51.3594 185.228 51.0835 184.965 50.5796 184.904C49.7563 184.804 48.9288 184.72 48.1056 184.626C47.4778 184.554 47.0173 184.365 47.1781 183.566C47.2519 183.199 47.3279 182.715 46.7328 182.647C46.1181 182.578 46.0008 183.001 46.0203 183.477C46.0507 184.274 45.6619 184.474 44.9451 184.316C44.6671 184.253 44.3717 184.263 44.0828 184.24H44.0785ZM43.8569 106.011C42.2887 105.976 40.9876 106.026 39.7647 106.546C38.6938 107 38.1856 107.984 38.3832 109.087C38.5852 110.221 39.415 111.007 40.4989 111.059C40.9181 111.079 41.4111 111.172 41.4958 110.531C41.5784 109.901 41.1331 109.836 40.6835 109.778C40.1448 109.706 39.6517 109.521 39.6126 108.907C39.5713 108.259 40.047 107.953 40.6031 107.792C41.8347 107.436 43.1054 107.527 44.3674 107.473C45.4425 107.425 46.0768 107.673 45.8705 108.937C45.7857 109.461 46.0268 109.919 46.6806 109.721C47.1672 109.573 46.9521 109.085 46.9152 108.781C46.8001 107.866 47.202 107.642 48.0187 107.782C48.7659 107.907 49.5239 107.966 50.269 108.096C50.7968 108.188 51.2117 108.179 51.3007 107.519C51.3833 106.906 51.0574 106.674 50.5079 106.604C49.7563 106.509 49.007 106.298 48.2576 106.307C47.3583 106.315 47.0217 106.009 47.1824 105.116C47.2476 104.758 47.2258 104.356 46.7067 104.319C46.2549 104.287 46.0073 104.549 46.029 104.969C46.0811 105.996 45.5207 106.152 44.6758 106.024C44.3217 105.97 43.9547 106.016 43.8547 106.016L43.8569 106.011Z" fill="#02909C"/>
<path d="M111.462 263.54C111.462 272.624 111.447 281.708 111.484 290.794C111.488 291.752 111.241 291.999 110.281 291.997C99.6048 291.962 88.9267 291.965 78.2508 291.995C77.3581 291.997 77.0996 291.778 77.0996 290.861C77.1278 272.802 77.104 254.741 77.1278 236.682C77.1387 228.517 84.1611 221.108 92.3152 220.216C100.947 219.271 108.767 224.942 110.869 232.77C111.46 234.971 111.458 237.199 111.458 239.439C111.462 247.473 111.458 255.508 111.458 263.543L111.462 263.54Z" fill="#FFCA64"/>
<path d="M91.042 40.4094C80.5095 40.4094 69.9748 40.3964 59.4422 40.4311C58.5061 40.4333 58.2259 40.2356 58.2346 39.2495C58.2845 32.9873 58.2758 26.7252 58.2411 20.463C58.2367 19.6767 58.4887 19.1728 59.1273 18.7644C59.8028 18.3343 60.5022 17.9781 61.2798 17.7739C63.9689 17.0702 66.6449 16.3143 69.3448 15.654C74.4015 14.4159 79.5233 13.6621 84.7277 13.2538C96.5743 12.3241 108.073 14.001 119.397 17.346C120.817 17.7652 122.279 18.0346 123.471 19.0099C123.834 19.3053 124.01 19.605 124.01 20.0981C123.991 26.5775 123.98 33.0568 124.017 39.5362C124.021 40.4116 123.613 40.4181 122.965 40.4181C112.324 40.4051 101.681 40.4094 91.0398 40.4094H91.042Z" fill="#FF500D"/>
<path d="M58.2891 77.7763C58.2804 69.7808 58.2782 61.7831 58.25 53.7876C58.25 53.1642 58.4455 52.9231 59.0537 53.0034C59.1949 53.023 59.3426 53.0056 59.4881 53.0056C80.5835 53.0056 101.679 53.0121 122.774 52.9839C123.756 52.9839 124.032 53.2163 124.023 54.222C123.969 62.0741 123.98 69.9241 123.971 77.7763C123.574 77.7915 123.176 77.8197 122.779 77.8197C101.679 77.8197 80.5792 77.8197 59.4794 77.8197C59.0819 77.8197 58.6844 77.7915 58.2869 77.7763H58.2891Z" fill="#FF500D"/>
<path d="M91.135 51.7741C80.5677 51.7741 70.0004 51.761 59.4331 51.7958C58.4861 51.798 58.2081 51.5829 58.2363 50.612C58.3101 48.0076 58.308 45.4011 58.2363 42.7968C58.2102 41.8106 58.4709 41.5413 59.4766 41.5435C79.3448 41.5761 99.213 41.5674 119.079 41.5674C120.417 41.5674 121.759 41.6043 123.095 41.5522C123.808 41.5239 124.023 41.7433 124.012 42.4623C123.973 45.2491 123.971 48.0359 124.012 50.8205C124.023 51.5764 123.814 51.7958 123.05 51.7914C117.73 51.7589 112.411 51.7741 107.091 51.7741C101.772 51.7741 96.4523 51.7741 91.1328 51.7741H91.135Z" fill="#FF500D"/>
<path d="M123.823 93.022C107.511 93.0155 91.1961 93.0133 74.8836 93.0047C69.3491 93.0025 63.8167 92.9851 58.2822 92.9742C58.2887 90.3938 58.2974 87.8133 58.3039 85.235C58.7731 85.2264 59.2445 85.209 59.7136 85.209C80.1857 85.209 100.66 85.209 121.132 85.209C122.073 85.209 123.013 85.2242 123.954 85.2329C123.967 87.7069 123.982 90.1831 123.986 92.6571C123.986 92.7788 123.88 92.9004 123.823 93.022Z" fill="#FF500D"/>
<path d="M123.956 85.2325C123.016 85.2238 122.075 85.2086 121.134 85.2086C100.662 85.2086 80.1882 85.2086 59.7161 85.2086C59.2469 85.2086 58.7756 85.226 58.3064 85.2347C58.2999 82.7476 58.2956 80.2627 58.2891 77.7778C58.6866 77.793 59.084 77.8213 59.4815 77.8213C80.5813 77.8234 101.681 77.8234 122.781 77.8213C123.178 77.8213 123.576 77.793 123.973 77.7778C123.967 80.2627 123.963 82.7476 123.956 85.2325Z" fill="#FFCA64"/>
<path d="M35.2384 232.221C35.2384 229.074 35.2623 225.924 35.2211 222.777C35.2102 222.004 35.4491 221.789 36.2007 221.817C37.682 221.871 39.1678 221.852 40.6513 221.823C41.203 221.813 41.4354 221.936 41.5701 222.555C42.9907 229.185 46.844 233.835 53.1018 236.45C53.6514 236.681 53.773 236.965 53.7708 237.493C53.76 242.956 53.7599 248.421 53.786 253.884C53.7882 254.481 53.6275 254.644 53.0453 254.546C45.4452 253.252 39.5848 249.383 35.5469 242.786C35.284 242.356 35.2363 241.922 35.2384 241.444C35.245 238.368 35.2428 235.293 35.2428 232.217L35.2384 232.221Z" fill="#02909C"/>
<path d="M53.5451 63.0928C53.5451 66.1685 53.4952 69.2442 53.5734 72.3178C53.5994 73.3235 53.2736 73.5276 52.3592 73.4755C51.0255 73.3995 49.6788 73.393 48.3451 73.4798C47.5371 73.532 47.3329 73.2127 47.1809 72.5024C45.8863 66.4965 42.4587 62.0633 36.9264 59.4611C35.3234 58.7074 34.9411 57.9167 34.9802 56.2855C35.0953 51.4764 35.0475 46.6609 34.9997 41.8497C34.9889 40.8831 35.2864 40.7028 36.1683 40.8636C43.5991 42.2124 49.2965 46.0788 53.2563 52.5147C53.5234 52.947 53.5473 53.3922 53.5473 53.8636C53.5451 56.9393 53.5473 60.015 53.5473 63.0907L53.5451 63.0928Z" fill="#02909C"/>
<path d="M43.9033 42.0522C41.1795 40.9575 38.4622 39.8324 35.493 39.5652C35.0238 39.5239 35.0216 39.2198 35.0216 38.8788C35.0216 33.3812 35.0347 27.8858 35.0108 22.3882C35.0064 21.4781 35.5147 21.7127 35.9926 21.8365C41.3707 23.2375 46.1384 25.7767 50.2285 29.5453C53.5627 32.6188 53.567 32.6384 53.5388 37.1433C53.5127 41.2616 53.6648 45.3821 53.4454 49.5004C53.4367 49.6655 53.5106 49.8675 53.1565 50.0673C50.7607 46.7548 47.698 44.1483 44.088 42.1891C44.0815 42.0653 44.0597 41.9654 43.9012 42.0522H43.9033Z" fill="#02909C"/>
<path d="M35.2643 246.542C35.2512 246.158 35.1665 245.767 35.4706 245.156C36.7043 247.013 38.2856 248.386 39.8039 249.82C39.7779 249.963 39.8582 250.017 39.9821 250.037C40.7684 250.613 41.5568 251.19 42.3431 251.766C42.3866 251.875 42.43 251.981 42.5821 251.927C42.7189 252.018 42.8557 252.109 42.9926 252.2C43.0382 252.305 43.0773 252.42 43.2315 252.348C43.6746 252.587 44.1177 252.826 44.5608 253.067C44.6912 253.33 44.878 253.495 45.1951 253.417C45.2733 253.445 45.3515 253.473 45.4297 253.501C45.4362 253.625 45.4579 253.725 45.6165 253.638C48.0536 254.622 50.5276 255.476 53.1624 255.756C53.6315 255.806 53.7836 256.078 53.7814 256.575C53.7619 262.036 53.7597 267.494 53.7879 272.955C53.7923 273.656 53.5924 273.693 52.9777 273.537C45.9988 271.76 40.2145 268.094 35.5444 262.631C35.312 262.359 35.2295 262.101 35.2295 261.76C35.2447 256.842 35.2512 251.924 35.2599 247.009C35.4054 246.989 35.5597 246.95 35.5597 246.774C35.5597 246.599 35.4076 246.559 35.2599 246.54L35.2643 246.542Z" fill="#02909C"/>
<path d="M35.6212 264.594C40.4129 269.707 46.1798 273.161 53.0067 274.798C53.5563 274.931 53.7757 275.17 53.7713 275.754C53.7496 279.444 53.7496 283.133 53.7713 286.823C53.7757 287.42 53.6388 287.642 52.9872 287.596C46.725 287.162 40.9798 285.231 35.7516 281.756C35.3845 281.512 35.2303 281.228 35.2324 280.776C35.2542 275.387 35.2585 269.998 35.2672 264.609C35.3866 264.605 35.5039 264.6 35.6234 264.596L35.6212 264.594Z" fill="#02909C"/>
<path d="M53.5449 31.0866C52.2504 29.779 51.1687 28.6842 49.9914 27.6894C45.8579 24.1945 41.1444 21.8508 35.901 20.5671C35.2732 20.4128 34.9974 20.2347 35.0061 19.5288C35.043 15.9101 35.0408 12.2914 35.0061 8.67046C34.9995 7.9515 35.2102 7.72343 35.9314 7.77121C42.0871 8.18608 47.7389 10.0758 52.8868 13.4795C53.2626 13.7271 53.5558 13.953 53.5536 14.4852C53.5363 19.9111 53.5428 25.3392 53.5428 31.0866H53.5449Z" fill="#02909C"/>
<path d="M53.5427 12.402C50.5256 10.4992 47.5911 9.05262 44.4372 8.11427C42.0175 7.3953 39.5826 6.72412 37.0173 6.76757C36.4917 6.77625 35.966 6.609 35.4382 6.54384C35.0364 6.49388 35.0233 6.22237 35.0233 5.91827C35.0255 4.68886 35.0385 3.46163 35.0168 2.23222C35.0081 1.7739 35.2514 1.61317 35.6272 1.4785C41.4506 -0.615409 47.2197 -0.487255 52.941 1.87599C53.2929 2.02152 53.5557 2.1866 53.5535 2.64492C53.5405 5.81619 53.547 8.98963 53.547 12.402H53.5427Z" fill="#02909C"/>
<path d="M35.0215 66.6154C35.0215 64.7018 35.0389 62.786 35.0106 60.8723C34.9998 60.1968 35.0432 59.8493 35.8621 60.2316C41.2467 62.7534 44.6243 66.8956 46.021 72.6712C46.1752 73.3076 45.9754 73.4727 45.3411 73.4684C42.1633 73.4423 38.9856 73.4423 35.8056 73.4684C35.1974 73.4727 34.9954 73.3054 35.0063 72.6821C35.0432 70.6598 35.0193 68.6376 35.0193 66.6154H35.0215Z" fill="#02909C"/>
<path d="M53.7605 228.526C53.7605 230.514 53.7409 232.501 53.7713 234.487C53.7822 235.195 53.6345 235.408 52.922 235.075C47.5591 232.586 44.2228 228.455 42.8174 222.729C42.6371 221.997 42.8413 221.808 43.5842 221.817C46.6903 221.856 49.7986 221.849 52.9047 221.819C53.5628 221.812 53.7865 222.006 53.7735 222.672C53.7366 224.623 53.7605 226.574 53.7605 228.524V228.526Z" fill="#02909C"/>
<path d="M35.2434 282.921C37.207 284.133 39.0533 285.169 41.006 285.99C44.6334 287.517 48.3977 288.462 52.3292 288.74C52.8005 288.772 53.5521 288.57 53.6824 289.094C53.8648 289.841 53.7541 290.671 53.6911 291.459C53.665 291.787 53.2892 291.694 53.0525 291.694C47.3333 291.698 41.6163 291.698 35.8972 291.698C35.5518 291.698 35.2391 291.692 35.2412 291.209C35.2477 288.512 35.2434 285.812 35.2434 282.918V282.921Z" fill="#02909C"/>
<path d="M57.4443 20.2611V5.09766C57.4574 5.09766 57.4726 5.09766 57.4856 5.09766V20.2611C57.4726 20.2611 57.4574 20.2611 57.4443 20.2611Z" fill="#41ACB5"/>
<path d="M45.1958 253.419C44.8765 253.497 44.6918 253.332 44.5615 253.069C44.833 253.078 45.1328 253.032 45.1958 253.419Z" fill="#FBFCFD"/>
<path d="M35.2646 246.542C35.4102 246.561 35.5644 246.6 35.5644 246.776C35.5644 246.952 35.4102 246.991 35.2646 247.011C35.2646 246.854 35.2646 246.698 35.2646 246.542Z" fill="#41ACB5"/>
<path d="M34.1089 291.298C33.8765 291.154 33.8765 291.011 34.1089 290.868C34.4217 291.011 34.4195 291.154 34.1089 291.298Z" fill="#41ACB5"/>
<path d="M35.6208 264.594C35.5014 264.599 35.3841 264.603 35.2646 264.607C35.2929 264.527 35.3124 264.383 35.3493 264.379C35.4905 264.362 35.5861 264.449 35.6187 264.594H35.6208Z" fill="#41ACB5"/>
<path d="M43.2321 252.35C43.0779 252.42 43.0388 252.307 42.9932 252.203C43.0735 252.253 43.1517 252.303 43.2321 252.35Z" fill="#FBFCFD"/>
<path d="M42.5827 251.927C42.4306 251.981 42.385 251.875 42.3438 251.766C42.4241 251.82 42.5045 251.873 42.5827 251.927Z" fill="#FBFCFD"/>
<path d="M43.9033 42.0513C44.0619 41.9644 44.0836 42.0643 44.0901 42.1881C44.0272 42.1425 43.9663 42.0969 43.9033 42.0513Z" fill="#FBFCFD"/>
<path d="M45.6194 253.641C45.4609 253.728 45.437 253.628 45.4326 253.504C45.4956 253.55 45.5564 253.595 45.6194 253.641Z" fill="#FBFCFD"/>
<path d="M35.3855 244.931C35.3746 244.95 35.3615 244.972 35.3506 244.992C35.3222 244.968 35.296 244.944 35.2676 244.92C35.2894 244.9 35.3113 244.88 35.3331 244.861C35.3506 244.885 35.368 244.907 35.3877 244.931H35.3855Z" fill="#41ACB5"/>
<path d="M39.9799 250.039C39.8561 250.019 39.7757 249.965 39.8018 249.822C39.8604 249.893 39.9213 249.967 39.9799 250.039Z" fill="#FBFCFD"/>
<path d="M93.2964 155.559C92.9836 156.228 92.7555 156.84 92.4275 157.394C91.3415 159.219 88.3722 160.431 86.6714 159.586C84.6275 158.567 83.2374 156.966 83.2048 154.51C83.17 152.018 83.1418 149.525 83.107 147.033C83.0983 146.501 83.1222 145.976 83.0223 145.437C82.9637 145.126 82.6726 144.503 83.4546 144.481C83.9346 144.468 84.3234 144.399 84.3517 145.159C84.3951 146.338 85.0511 146.727 86.3174 146.695C90.4357 146.586 94.5584 146.612 98.6767 146.681C99.7214 146.699 100.282 146.443 100.351 145.372C100.36 145.228 100.384 145.085 100.419 144.948C100.532 144.503 100.86 144.475 101.253 144.475C101.785 144.475 101.698 144.835 101.698 145.144C101.696 148.143 101.768 151.145 101.659 154.143C101.544 157.342 98.8743 159.449 96.1462 158.63C94.6344 158.176 93.7069 157.16 93.2964 155.561V155.559ZM88.4308 149.258C87.4186 149.258 86.4065 149.266 85.3964 149.253C85.0011 149.249 84.697 149.26 84.7166 149.805C84.76 151.069 84.697 152.338 84.7947 153.595C84.899 154.949 85.5919 155.896 86.8735 156.523C87.6446 156.901 88.3114 156.656 89.026 156.636C90.5182 156.599 91.6108 155.674 91.9127 154.208C92.2147 152.739 92.0127 151.254 92.0778 149.777C92.0974 149.31 91.8432 149.247 91.4696 149.251C90.4574 149.262 89.4452 149.255 88.4352 149.253L88.4308 149.258ZM96.8717 149.258C96.0028 149.258 95.1361 149.273 94.2673 149.251C93.8329 149.24 93.6026 149.331 93.62 149.84C93.6548 150.924 93.5787 152.014 93.6526 153.094C93.7764 154.916 95.1101 156.039 97.0259 156.026C98.9547 156.013 100.052 154.985 100.149 153.037C100.199 152.027 100.132 151.01 100.193 150C100.232 149.331 99.9387 149.221 99.3674 149.247C98.5377 149.286 97.7036 149.258 96.8717 149.258Z" fill="#142762"/>
<path d="M84.2741 187.928C84.7013 189.305 85.6541 189.994 87.1325 189.994C91.0054 189.994 94.8783 189.946 98.7489 190.02C99.8763 190.042 100.365 189.622 100.358 188.588C100.354 187.971 100.628 187.917 101.132 187.904C101.773 187.887 101.707 188.282 101.703 188.682C101.703 188.719 101.703 188.753 101.703 188.79C101.683 190.126 102.07 191.671 101.525 192.741C101.008 193.758 99.5244 194.292 98.4535 195.02C95.254 197.192 92.0458 199.355 88.8442 201.523C88.5574 201.717 88.2838 201.927 88.0513 202.375C88.7508 202.375 89.4524 202.375 90.1518 202.375C93.0103 202.368 95.8709 202.312 98.7272 202.379C99.7373 202.403 100.313 202.173 100.361 201.102C100.367 200.961 100.426 200.822 100.458 200.68C100.576 200.181 100.969 200.266 101.325 200.272C101.781 200.283 101.696 200.628 101.699 200.9C101.705 202.455 101.647 204.015 101.727 205.568C101.764 206.278 101.214 206.191 100.908 206.321C100.506 206.493 100.552 205.996 100.437 205.77C100.374 205.646 100.361 205.492 100.345 205.348C100.25 204.41 99.8154 204.075 98.8032 204.086C93.9551 204.143 89.1048 204.106 84.2567 204.078C83.8787 204.075 83.2488 204.358 83.1663 203.747C83.0816 203.126 82.8209 202.396 83.5985 201.892C85.0234 200.967 86.4092 199.985 87.8124 199.025C91.0271 196.825 94.2462 194.631 97.4522 192.418C97.702 192.246 98.0691 192.175 98.1494 191.799C98.1994 191.771 98.2494 191.744 98.2972 191.716C98.2407 191.725 98.182 191.736 98.1255 191.744C93.9356 191.742 89.7478 191.749 85.5578 191.723C84.9713 191.718 84.6976 191.918 84.626 192.483C84.5912 192.767 84.4782 193.041 84.4239 193.324C84.3262 193.83 84.0004 193.921 83.5464 193.875C83.062 193.827 83.1076 193.484 83.1076 193.165C83.1033 191.684 83.1424 190.202 83.0903 188.723C83.0642 187.993 83.3357 187.735 84.0178 187.806C84.1025 187.848 84.1872 187.889 84.2719 187.93L84.2741 187.928Z" fill="#142762"/>
<path d="M100.091 106.871C100.291 106.487 100.193 106.052 100.35 105.633C100.556 105.084 100.906 105.177 101.286 105.171C101.825 105.162 101.692 105.572 101.694 105.866C101.699 108.792 101.823 111.726 101.657 114.643C101.41 118.97 98.8424 121.253 94.6502 122.087C94.1919 122.178 93.7162 122.18 93.2492 122.224C92.9234 122.083 92.5954 122.083 92.2696 122.224C90.1844 122.215 88.1969 121.798 86.431 120.647C83.8419 118.959 83.1033 116.39 83.1099 113.481C83.1142 110.951 83.1055 108.418 83.1142 105.887C83.1142 105.553 82.9991 105.149 83.5617 105.073C84.0591 105.006 84.374 105.216 84.3914 105.659C84.4544 107.299 85.5078 107.28 86.7459 107.265C90.9772 107.208 95.2085 107.232 99.4376 107.228C99.7938 107.367 100.08 107.371 100.091 106.874V106.871ZM92.4716 109.825C90.23 109.825 87.9884 109.856 85.7468 109.808C84.9757 109.793 84.6325 109.938 84.7042 110.803C84.7889 111.809 84.7172 112.825 84.7259 113.839C84.7433 116.542 86.0183 118.201 88.6205 118.831C91.0858 119.428 93.5729 119.4 96.0274 118.801C98.7924 118.125 100.1 116.42 100.141 113.59C100.157 112.614 100.102 111.635 100.159 110.662C100.198 109.984 99.9675 109.799 99.3051 109.81C97.0287 109.847 94.7502 109.825 92.4716 109.825Z" fill="#142762"/>
<path d="M100.091 125.984C100.265 125.556 100.193 125.089 100.391 124.641C100.615 124.137 100.969 124.315 101.29 124.287C101.74 124.248 101.696 124.589 101.696 124.876C101.698 126.794 101.701 128.712 101.696 130.63C101.696 130.908 101.738 131.245 101.288 131.225C100.977 131.212 100.621 131.327 100.48 130.888C100.404 130.654 100.189 130.415 100.217 130.204C100.384 128.931 99.5893 128.916 98.6857 128.933C95.5036 128.992 92.3171 128.838 89.135 129.025C85.2143 129.255 83.001 132.956 84.7604 136.468C85.3099 137.567 86.3416 138.206 87.621 138.417C89.1936 138.675 90.7706 138.606 92.3475 138.612C94.4827 138.621 96.6222 138.545 98.753 138.645C99.7783 138.693 100.174 138.265 100.341 137.387C100.376 137.209 100.423 137.035 100.46 136.859C100.567 136.347 100.966 136.451 101.316 136.449C101.781 136.445 101.696 136.792 101.698 137.064C101.705 138.656 101.694 140.248 101.705 141.84C101.707 142.268 101.614 142.496 101.11 142.509C100.606 142.522 100.467 142.368 100.386 141.866C100.137 140.315 100.104 140.328 98.5293 140.32C95.2016 140.302 91.8718 140.311 88.5463 140.239C85.8725 140.183 83.9914 138.919 83.1812 136.303C82.3537 133.627 82.573 131.008 84.0718 128.631C85.2665 126.735 87.2648 126.37 89.3413 126.362C92.7059 126.346 96.0727 126.346 99.4372 126.342C99.7935 126.481 100.08 126.485 100.091 125.988V125.984Z" fill="#142762"/>
<path d="M83.1072 169.056C83.1072 166.923 83.1051 164.79 83.1094 162.657C83.1094 162.281 82.99 161.858 83.6459 161.836C84.1672 161.819 84.3518 162.038 84.4387 162.485C84.5473 163.046 84.5061 163.889 84.8449 164.095C85.3271 164.388 86.0939 164.238 86.739 164.24C90.7531 164.247 94.7671 164.199 98.779 164.275C99.8237 164.295 100.176 163.86 100.336 162.987C100.402 162.633 100.436 162.231 100.638 161.966C100.753 161.816 101.183 161.847 101.457 161.888C101.818 161.945 101.694 162.283 101.696 162.509C101.707 164.605 101.705 166.704 101.7 168.8C101.7 169.112 101.776 169.453 101.251 169.467C100.786 169.477 100.545 169.371 100.412 168.876C99.8802 166.882 99.8607 166.886 97.8254 166.886C93.7766 166.886 89.7256 166.906 85.6768 166.869C84.9231 166.862 84.6842 167.053 84.7081 167.824C84.7646 169.595 84.7493 171.367 84.7146 173.14C84.7016 173.793 84.9296 173.993 85.5791 174.052C86.5001 174.134 87.3972 174.454 88.3181 174.543C89.1196 174.621 89.0697 175.09 89.0784 175.657C89.0914 176.428 88.5353 176.176 88.1704 176.183C86.7607 176.204 85.3489 176.157 83.9413 176.207C83.2615 176.23 83.0834 176.007 83.0942 175.351C83.1311 173.255 83.1072 171.156 83.1094 169.06L83.1072 169.056Z" fill="#142762"/>
<path d="M92.4298 183.104C90.4402 183.104 88.4484 183.104 86.4587 183.104C84.8557 183.104 84.8666 183.106 84.4734 184.674C84.38 185.048 84.4473 185.582 83.7609 185.539C83.3352 185.512 83.0963 185.449 83.1006 184.943C83.1202 182.845 83.1093 180.745 83.1093 178.646C83.1093 178.332 83.1549 178.058 83.5568 178.056C83.8717 178.056 84.2323 177.956 84.3431 178.412C84.3605 178.481 84.3865 178.551 84.4104 178.618C84.6189 179.22 84.443 180.113 85.0012 180.386C85.5595 180.662 86.3436 180.491 87.03 180.491C90.8659 180.495 94.7018 180.447 98.5378 180.521C99.6738 180.543 100.334 180.312 100.354 179.081C100.356 178.903 100.417 178.725 100.454 178.549C100.56 178.034 100.966 178.147 101.314 178.143C101.776 178.134 101.698 178.479 101.7 178.753C101.705 180.816 101.703 182.878 101.7 184.941C101.7 185.234 101.724 185.532 101.281 185.526C100.914 185.519 100.632 185.545 100.462 185.063C99.7693 183.091 99.7455 183.099 97.6429 183.099C95.9052 183.099 94.1697 183.099 92.432 183.099L92.4298 183.104Z" fill="#142762"/>
<path d="M92.2695 122.222C92.5953 122.081 92.9233 122.081 93.2492 122.222C92.9233 122.722 92.5953 122.722 92.2695 122.222Z" fill="#9A7169"/>
<path d="M100.091 125.984C100.078 126.481 99.7937 126.477 99.4375 126.338C99.5179 125.967 99.8307 126.023 100.091 125.984Z" fill="#9A7169"/>
<path d="M100.091 106.872C100.078 107.369 99.7937 107.365 99.4375 107.226C99.5179 106.854 99.8307 106.911 100.091 106.872Z" fill="#9A7169"/>
<path d="M84.2737 187.928C84.189 187.886 84.1042 187.845 84.0195 187.804C84.0738 187.736 84.1281 187.667 84.1824 187.6C84.2128 187.708 84.2433 187.817 84.2737 187.928Z" fill="#9A7169"/>
<path d="M98.127 191.74C98.1834 191.731 98.2421 191.72 98.2986 191.711C98.2486 191.74 98.2008 191.766 98.1508 191.794L98.127 191.74Z" fill="#9A7169"/>
<path d="M8.6349 219.582C8.63924 213.628 9.06064 208.786 10.6571 204.107C11.0916 202.835 11.6302 201.612 12.4926 200.563C13.8936 198.855 15.5878 198.888 16.9128 200.66C18.4897 202.772 19.1957 205.25 19.6714 207.778C21.2092 215.948 21.2114 224.087 18.9307 232.145C18.5158 233.611 17.9402 235.01 17.0301 236.255C15.5574 238.273 13.7437 238.294 12.2862 236.244C10.7636 234.104 10.125 231.606 9.59933 229.091C8.87167 225.611 8.60015 222.084 8.63707 219.582H8.6349Z" fill="#363636"/>
<path d="M11.4524 102.677C11.0549 101.899 10.7768 101.1 10.918 100.218C11.1483 98.7629 11.915 97.7442 13.3551 97.3423C14.9733 96.8927 16.5264 96.9752 17.7775 98.2655C18.8419 99.3624 18.9744 100.683 18.5095 102.086C18.4074 102.397 18.2814 102.577 18.6138 102.901C19.2176 103.487 18.9331 104.017 18.1772 104.098C15.4447 104.389 12.6948 104.575 9.9775 104.026C8.69813 103.767 7.93789 102.846 7.7185 101.539C7.49261 100.192 7.63379 98.9301 8.72419 97.9614C9.14558 97.5878 9.68861 97.3098 10.1991 97.692C10.6617 98.0396 10.6161 98.663 10.1122 98.8541C8.70682 99.3906 9.03481 100.514 9.16513 101.495C9.31284 102.623 10.3446 102.586 11.1852 102.733C11.2503 102.744 11.322 102.705 11.4545 102.677H11.4524ZM14.6149 102.805C16.3526 102.807 17.0043 102.24 16.989 100.735C16.976 99.4428 16.2397 98.7933 14.7952 98.7976C13.316 98.802 12.4667 99.5535 12.4341 100.887C12.4015 102.186 13.1031 102.801 14.6171 102.803L14.6149 102.805Z" fill="#3A3838"/>
<path d="M16.1871 137.774C17.6315 137.774 19.076 137.776 20.5183 137.774C21.0613 137.774 21.5761 137.83 21.5783 138.538C21.5783 139.244 21.0765 139.318 20.5248 139.301C20.3076 139.294 20.0903 139.301 19.8753 139.301C18.5329 139.301 18.5221 139.305 18.8088 140.565C19 141.403 18.7762 142.146 18.3027 142.813C17.0755 144.546 14.3582 145.205 12.4706 144.231C11.2629 143.61 10.6982 142.589 10.6895 141.245C10.683 140.309 11.2673 139.451 10.8741 138.425C10.6786 137.915 11.339 137.748 11.8559 137.752C13.3004 137.765 14.7448 137.756 16.1871 137.756C16.1871 137.763 16.1871 137.767 16.1871 137.774ZM14.6101 139.355C14.0888 139.485 13.333 139.005 12.803 139.69C12.2925 140.348 12.0536 141.088 12.3208 141.916C12.5727 142.702 13.22 143.024 13.9629 143.139C15.0185 143.302 15.9764 143.011 16.7605 142.29C17.2645 141.827 17.5208 141.247 17.2275 140.537C16.943 139.846 16.5086 139.39 15.7005 139.414C15.3769 139.422 15.0532 139.383 14.6123 139.359L14.6101 139.355Z" fill="#3A3838"/>
<path d="M13.9462 115.638C13.9462 114.915 13.9548 114.192 13.9396 113.469C13.9353 113.264 13.9266 112.971 13.8028 112.882C13.5639 112.71 13.3315 112.96 13.1381 113.097C12.2628 113.721 11.9087 115.458 12.3975 116.692C12.5039 116.959 12.6755 117.205 12.7559 117.478C12.8623 117.839 12.6646 118.108 12.3714 118.297C12.0912 118.48 11.8262 118.404 11.5677 118.223C11.1398 117.928 10.8922 117.437 10.6815 117.042C10.0233 115.806 11.1767 112.515 12.4235 111.705C13.8701 110.764 15.5774 110.795 17.0001 111.783C18.3338 112.71 18.9833 114.396 18.614 115.975C18.2382 117.576 16.9958 118.695 15.2842 118.979C14.5217 119.107 14.0743 118.764 14.0244 118.021C13.9701 117.231 14.0113 116.433 14.0113 115.638C13.9896 115.638 13.9679 115.638 13.9462 115.638ZM15.5122 117.276C16.6526 116.887 17.1522 116.153 17.1739 115.076C17.1978 114.003 16.6244 113.273 15.5122 112.91V117.274V117.276Z" fill="#3A3838"/>
<path d="M13.8001 85.6933C12.3014 86.447 11.7497 88.1716 12.4817 89.7985C12.7402 90.3742 13.029 90.9259 12.2514 91.2256C11.565 91.4906 11.3044 90.9085 11.0828 90.398C9.86211 87.5982 11.2827 84.4856 14.0108 83.9773C16.1199 83.5842 18.3876 85.2284 18.6787 87.3658C18.9893 89.6356 17.4189 91.6731 15.1816 91.8925C14.3388 91.975 14 91.5102 13.9913 90.726C13.9761 89.4619 13.9674 88.1955 13.9435 86.9314C13.937 86.5447 14.0195 86.1451 13.8001 85.6954V85.6933ZM15.4401 87.9023H15.4705C15.4705 88.4432 15.4944 88.984 15.464 89.5227C15.4205 90.3133 15.7898 90.1569 16.2199 89.8746C17.5014 89.034 17.5036 87.0183 16.2155 86.0908C16.0504 85.9713 15.8137 85.8258 15.6464 85.8605C15.3141 85.9344 15.4553 86.2711 15.4466 86.4991C15.4249 86.9661 15.4401 87.4353 15.4401 87.9045V87.9023Z" fill="#3A3838"/>
<path d="M13.9409 150.585C13.9409 149.825 13.9344 149.065 13.9409 148.307C13.9474 147.642 13.6433 147.686 13.2089 147.964C12.3661 148.504 11.9317 150.092 12.3097 151.322C12.4052 151.63 12.5442 151.926 12.6789 152.221C12.8831 152.673 12.7093 152.986 12.3249 153.22C11.9208 153.466 11.632 153.233 11.3822 152.955C10.4742 151.939 10.4503 149.299 11.3235 147.777C12.1142 146.398 13.8584 145.679 15.5526 146.039C17.1426 146.376 18.4611 147.801 18.6761 149.412C18.9693 151.602 17.4793 153.563 15.3332 153.848C14.4666 153.963 14.0061 153.639 13.993 152.753C13.9822 152.03 13.9909 151.306 13.9909 150.583C13.9735 150.583 13.9561 150.583 13.9387 150.583L13.9409 150.585ZM15.4723 147.69C15.4723 149.071 15.4701 150.294 15.4744 151.515C15.4744 151.717 15.4093 152.012 15.6829 152.049C15.8632 152.073 16.0957 151.949 16.2586 151.83C16.9862 151.287 17.2903 150.538 17.16 149.651C17.0253 148.733 16.4845 148.109 15.4701 147.69H15.4723Z" fill="#3A3838"/>
<path d="M13.5156 162.062C12.9009 162.062 12.2861 162.053 11.6736 162.064C11.2696 162.071 10.9677 161.923 10.8135 161.543C10.6679 161.189 10.7831 160.841 11.0937 160.702C11.6519 160.452 11.3587 160.209 11.1914 159.894C10.4877 158.571 10.6397 157.02 11.5585 155.941C12.4121 154.935 13.9152 154.594 15.3336 155.122C16.6564 155.613 17.7794 156.373 18.4593 157.657C19.5084 159.638 18.5266 161.534 16.3241 161.892C15.3857 162.045 14.4539 162.031 13.5156 162.062ZM14.4105 160.546C14.732 160.507 15.0599 160.502 15.3705 160.424C16.0439 160.257 16.9996 160.635 17.2125 159.538C17.4232 158.456 16.8215 157.757 16.0222 157.183C15.7311 156.975 15.4031 156.812 15.0773 156.666C14.3106 156.328 13.5156 156.199 12.8509 156.829C12.1232 157.518 12.1993 158.408 12.5316 159.243C12.8531 160.053 13.3744 160.693 14.4105 160.548V160.546Z" fill="#3A3838"/>
<path d="M18.0809 77.5563C18.4415 78.2905 18.9172 78.9117 18.8563 79.7067C18.7521 81.0882 17.9853 82.007 16.5517 82.3589C14.9096 82.7607 13.2545 82.5913 11.6015 82.4045C11.0759 82.3437 10.7826 82.1134 10.8326 81.5813C10.8825 81.0382 11.2757 80.8731 11.7601 80.8949C12.731 80.9405 13.7019 81.0187 14.675 81.0513C15.0682 81.0643 15.4722 81.0339 15.8567 80.9513C17.0144 80.6972 17.3771 80.2063 17.249 79.1528C17.136 78.2254 16.4605 77.5976 15.5004 77.5954C14.347 77.5911 13.1893 77.6106 12.0381 77.6693C11.4408 77.6997 10.863 77.6563 10.7935 76.9742C10.7175 76.2422 11.3343 76.1206 11.9034 76.1141C14.8271 76.0771 17.7507 76.0554 20.6744 76.0315C21.2066 76.0272 21.767 76.0641 21.7344 76.7809C21.7061 77.4304 21.2 77.5629 20.6461 77.5607C19.8229 77.5563 18.9997 77.5607 18.0831 77.5607L18.0809 77.5563Z" fill="#3A3838"/>
<path d="M10.6876 166.476C10.6811 164.626 11.4457 163.677 13.0292 163.451C13.5418 163.377 13.9088 163.522 14.0196 164.028C14.1152 164.467 13.8936 164.752 13.4505 164.932C12.1646 165.458 11.8062 166.546 12.46 167.817C12.6121 168.112 12.7924 168.397 13.179 168.379C13.5613 168.364 13.772 168.088 13.8589 167.771C14.0413 167.113 14.1543 166.435 14.3259 165.773C14.719 164.246 15.3859 163.637 16.5371 163.727C17.8946 163.831 18.7352 164.671 18.7874 166.155C18.8286 167.373 18.5115 168.516 17.5493 169.38C17.1388 169.75 16.7109 170.199 16.1744 169.615C15.7052 169.102 16.0505 168.672 16.4545 168.325C17.1279 167.749 17.2778 167 17.2408 166.174C17.2235 165.747 17.1084 165.386 16.6066 165.308C16.0809 165.227 15.9028 165.56 15.8094 165.983C15.6661 166.615 15.5488 167.256 15.3881 167.882C15.0449 169.211 14.1999 169.984 13.1182 170C12.2189 170.013 11.3371 169.222 10.9504 168.006C10.7875 167.493 10.6355 166.967 10.6854 166.474L10.6876 166.476Z" fill="#3A3838"/>
<path d="M13.5208 127.115C13.0212 127.115 12.4065 127.106 11.7918 127.119C11.4138 127.128 11.0424 127.115 10.886 126.702C10.7513 126.344 10.7492 125.948 11.1358 125.749C11.6137 125.501 11.3422 125.271 11.2053 124.988C10.4755 123.481 10.6384 122.028 11.6376 120.968C12.6541 119.89 14.0182 119.662 15.6234 120.325C16.8224 120.82 17.8281 121.561 18.4602 122.725C19.4897 124.621 18.5449 126.554 16.4444 126.954C15.5083 127.132 14.5742 127.069 13.5251 127.115H13.5208ZM14.9761 125.577C15.089 125.566 15.5213 125.553 15.947 125.486C17.2981 125.271 17.7042 124.354 16.9505 123.194C16.3727 122.304 15.4887 121.819 14.4961 121.552C13.2037 121.205 12.1219 122.206 12.2979 123.548C12.4868 124.997 13.1841 125.597 14.9761 125.577Z" fill="#3A3838"/>
<path d="M21.5936 70.8817C21.5936 72.0025 21.5936 73.1233 21.5936 74.2419C21.5936 74.7111 21.4806 75.1499 20.918 75.1694C20.2947 75.1911 20.1535 74.7393 20.1491 74.218C20.1491 74.1463 20.1491 74.0725 20.1491 74.0008C20.1013 72.3153 19.2137 71.4725 17.4861 71.4725C15.642 71.4725 13.8001 71.4725 11.956 71.4725C11.3695 71.4725 10.8134 71.3878 10.8525 70.6275C10.8895 69.9021 11.4716 69.9498 11.982 69.9498C14.4039 69.9542 16.8236 69.9368 19.2455 69.9868C19.9145 69.9998 20.1687 69.7848 20.1491 69.1418C20.1317 68.5271 20.1491 67.9124 20.1513 67.2999C20.1535 66.8524 20.3055 66.5005 20.8094 66.4766C21.3677 66.4484 21.5827 66.809 21.587 67.3021C21.6001 68.4945 21.5914 69.687 21.5914 70.8795H21.5957L21.5936 70.8817Z" fill="#3A3838"/>
<path d="M14.9142 171.6C15.3855 171.6 15.8568 171.583 16.326 171.604C16.7713 171.626 17.0841 171.652 17.2948 171.066C17.4989 170.492 18.2353 170.399 18.4721 170.972C18.7805 171.719 19.2627 171.663 19.8318 171.654C20.4096 171.646 21.0091 171.728 21.0416 172.432C21.0786 173.22 20.4313 173.186 19.8752 173.177C19.367 173.168 18.8587 173.086 18.8218 173.868C18.8044 174.254 18.4786 174.491 18.0463 174.461C17.6706 174.434 17.3882 174.222 17.3925 173.863C17.4012 173.077 16.8712 173.129 16.3608 173.123C15.7091 173.116 15.0575 173.138 14.4059 173.118C13.3937 173.088 12.438 173.073 12.236 174.434C12.1751 174.841 11.7842 175.11 11.315 174.943C10.8893 174.791 10.7459 174.471 10.8045 173.998C10.9848 172.506 11.7885 171.711 13.2851 171.637C13.8259 171.611 14.369 171.632 14.912 171.632V171.598L14.9142 171.6Z" fill="#3A3838"/>
<path d="M15.0772 129.088C15.4747 129.088 15.8722 129.079 16.2675 129.088C16.6889 129.098 17.0343 129.187 17.2884 128.605C17.5751 127.949 18.2832 128.004 18.5309 128.616C18.8176 129.32 19.2737 129.257 19.7994 129.242C20.3684 129.227 21.0027 129.257 21.0309 129.967C21.0614 130.773 20.3858 130.795 19.7842 130.764C19.2846 130.741 18.8762 130.743 18.8219 131.431C18.7937 131.772 18.5178 132.115 18.0639 132.037C17.6772 131.97 17.3796 131.731 17.3818 131.314C17.3862 130.682 16.9713 130.628 16.5151 130.621C15.7571 130.61 14.999 130.628 14.2431 130.617C13.2917 130.604 12.4359 130.675 12.2643 131.907C12.2079 132.32 11.8582 132.611 11.3803 132.5C10.9068 132.391 10.8112 132.026 10.8329 131.581C10.8937 130.276 11.6105 129.437 12.9246 129.235C13.6349 129.127 14.3561 129.096 15.0729 129.031C15.0729 129.048 15.075 129.066 15.0772 129.081V129.088Z" fill="#3A3838"/>
<path d="M14.9182 106.224C15.9282 106.224 16.9404 106.224 17.9505 106.224C18.3762 106.224 18.765 106.307 18.8649 106.795C18.9475 107.199 18.7585 107.562 18.3871 107.662C17.8419 107.81 18.0287 107.99 18.235 108.298C18.6108 108.855 18.7628 109.487 18.6347 110.156C18.5521 110.584 18.3241 110.872 17.8201 110.844C17.3792 110.82 17.1772 110.605 17.1446 110.171C17.1164 109.812 17.0556 109.456 16.9882 109.102C16.8145 108.209 16.3344 107.705 15.3526 107.74C14.1623 107.784 12.9699 107.762 11.7795 107.779C11.2409 107.788 10.8238 107.634 10.8282 107.019C10.8325 106.415 11.2343 106.246 11.7795 106.252C12.8265 106.265 13.8734 106.257 14.9182 106.257V106.228V106.224Z" fill="#3A3838"/>
<path d="M47.0506 145.2C48.1237 146.966 48.4995 148.736 47.6979 150.57C46.9008 152.396 45.4476 153.315 43.4189 153.4C41.4988 153.48 39.9283 152.915 38.9704 151.195C37.8931 149.264 37.9713 147.322 39.3115 145.532C39.6938 145.022 39.6546 144.779 39.1616 144.459C38.9596 144.329 38.7967 144.108 38.6685 143.895C38.4774 143.578 38.5273 143.256 38.8271 143.028C39.0855 142.83 39.4027 142.809 39.6069 143.076C40.2042 143.856 41.0448 143.81 41.8767 143.79C45.9559 143.695 50.0373 143.591 54.1165 143.491C54.64 143.478 55.1765 143.452 55.2112 144.194C55.2416 144.848 54.8051 144.918 54.2881 144.972C51.914 145.231 49.5268 145.057 47.0506 145.202V145.2ZM43.61 145.2C43.0735 145.237 42.5349 145.293 41.9984 145.309C40.176 145.359 39.2962 147.331 39.4917 148.919C39.7415 150.943 41.0079 152.007 43.3776 151.881C45.5106 151.769 46.9138 150.533 46.9312 148.521C46.9507 146.46 45.8104 145.335 43.61 145.2Z" fill="#EDDCB7"/>
<path d="M39.1293 205.047C37.6327 205.047 36.2578 205.018 34.8872 205.06C34.292 205.077 34.001 204.862 34.0162 204.288C34.0292 203.756 34.3507 203.533 34.8763 203.55C36.4663 203.604 38.0563 203.663 39.6463 203.689C41.5621 203.719 43.4779 203.709 45.3937 203.741C45.8628 203.75 46.2429 203.53 46.5774 203.298C47.077 202.946 47.4528 202.848 47.8177 203.437C48.2 204.058 47.6743 204.26 47.3225 204.536C47.1552 204.669 46.9576 204.762 46.6491 204.949C48.1001 206.187 48.4237 207.79 48.2282 209.538C48.1262 210.455 47.7743 211.289 47.1009 211.945C45.2155 213.791 42.5677 213.926 40.4543 212.744C38.078 211.417 37.737 209.082 39.1315 205.047H39.1293ZM43.7754 211.882C44.5748 211.876 45.8454 211.667 46.5644 210.333C47.2356 209.087 47.1509 207.833 46.4363 206.628C45.739 205.453 41.8249 204.63 40.7301 205.414C40.6454 205.474 40.5738 205.566 40.5173 205.657C39.6788 206.999 39.2249 208.431 39.8722 209.964C40.4847 211.411 41.7554 211.858 43.7754 211.882Z" fill="#E9D8B3"/>
<path d="M40.3083 125.395C41.9005 125.395 43.4926 125.386 45.0848 125.399C45.7147 125.406 46.3207 125.358 46.8203 124.93C47.22 124.587 47.5349 124.674 47.8151 125.076C48.117 125.508 47.9563 125.888 47.5545 126.068C46.6487 126.472 46.8355 126.813 47.3677 127.493C48.5992 129.064 48.5862 130.869 47.7956 132.619C47.0158 134.348 45.4606 135.009 43.6729 135.137C39.6524 135.428 37.1957 131.781 38.6879 128.101C39.1614 126.933 39.1223 126.915 37.8213 126.852C36.846 126.805 35.8729 126.74 34.8976 126.716C34.3872 126.703 34.0309 126.533 34.0179 125.992C34.0049 125.432 34.3807 125.273 34.8824 125.276C36.6896 125.282 38.4968 125.278 40.3062 125.278C40.3062 125.317 40.3062 125.358 40.3062 125.397L40.3083 125.395ZM43.2124 133.616C45.1695 133.603 46.3381 132.874 46.8225 131.479C47.3199 130.054 46.8464 128.23 45.5779 127.409C44.1117 126.461 42.4435 126.989 40.8514 127.041C40.7449 127.046 40.6168 127.211 40.5429 127.328C39.6719 128.699 39.1897 130.154 39.9043 131.729C40.5755 133.21 41.9157 133.582 43.2124 133.619V133.616Z" fill="#E9D8B3"/>
<path d="M51.9317 97.9051C51.9252 100.242 50.8456 101.843 49.0623 102.243C48.5258 102.364 47.8221 102.599 47.6179 101.787C47.4159 100.987 47.985 100.874 48.641 100.785C49.7227 100.638 50.5046 99.7319 50.6371 98.6415C50.8174 97.1557 50.2961 95.9828 49.2405 95.5028C47.9937 94.9337 46.8533 95.442 46.3059 96.856C45.865 98.0007 45.5609 99.204 45.0483 100.314C44.1251 102.304 42.0139 103.001 40.2328 102.008C38.6862 101.146 37.9607 98.9086 38.5472 96.8234C39.0533 95.0314 40.5998 93.8237 42.3614 93.8368C42.8284 93.8411 43.2411 93.8802 43.2737 94.4927C43.3041 95.0922 43.0065 95.2986 42.4396 95.3768C40.4565 95.644 39.3878 97.1318 39.807 99.0607C39.9982 99.9404 40.3935 100.711 41.4252 100.874C42.4831 101.042 43.3215 100.67 43.7429 99.6928C44.2837 98.4351 44.6313 97.0928 45.2004 95.8503C46.2994 93.4545 49.3273 93.0592 51.0064 95.051C51.7384 95.9176 52.112 96.9103 51.9339 97.9073L51.9317 97.9051Z" fill="#E9D8B3"/>
<path d="M38.4227 175.749C38.401 174.068 39.6109 172.962 41.1683 172.186C41.6005 171.971 42.2283 172.087 42.7561 172.141C43.1884 172.187 43.297 172.554 43.2731 172.96C43.2427 173.479 42.9125 173.561 42.4694 173.629C40.2777 173.961 39.2025 175.784 39.9476 177.832C40.2147 178.566 40.6774 179.083 41.4724 179.205C42.3304 179.335 43.0385 179.059 43.5533 178.336C44.0441 177.645 44.2266 176.826 44.5112 176.048C44.7718 175.338 44.9868 174.608 45.2975 173.922C46.3162 171.667 49.1616 171.465 50.7581 173.09C52.1048 174.463 52.3438 176.105 51.8225 177.838C51.3207 179.5 50.1261 180.427 48.3514 180.651C47.5738 180.749 47.5282 180.215 47.4001 179.8C47.2458 179.304 47.6498 179.278 48.0408 179.213C50.0218 178.879 50.832 177.808 50.6452 175.836C50.5257 174.569 49.7242 173.774 48.295 173.616C47.1894 173.492 46.6637 174.261 46.3162 175.138C45.8514 176.311 45.5234 177.543 45.0021 178.688C44.4221 179.96 43.3795 180.714 41.9285 180.714C40.6231 180.714 39.5219 180.184 38.8767 179.05C38.3576 178.134 38.3272 177.063 38.4249 175.751L38.4227 175.749Z" fill="#E9D8B3"/>
<path d="M43.206 191.596C46.6466 191.605 48.7579 194.088 48.2236 197.493C47.8825 199.661 46.2622 200.997 44.0162 201.108C43.206 201.147 43.017 200.867 43.0105 200.148C42.9888 198.054 42.8932 195.962 42.8889 193.868C42.8867 192.915 42.5674 192.76 41.7333 193.13C39.3722 194.174 38.7641 197.281 40.5973 199.079C40.7515 199.231 40.9166 199.372 41.0773 199.518C41.4032 199.809 41.4314 200.161 41.1838 200.482C40.9058 200.843 40.5604 200.762 40.2346 200.504C39.1442 199.642 38.3123 198.651 38.258 197.152C38.2319 196.449 38.4209 195.747 38.1429 195.022C37.9952 194.635 38.6772 194.479 38.8509 194.07C39.6676 192.157 41.2772 191.581 43.2038 191.594L43.206 191.596ZM44.0792 196.242C44.0792 196.242 44.1009 196.242 44.1096 196.242C44.1096 197.039 44.1096 197.834 44.1096 198.632C44.114 199.626 44.5549 199.948 45.4867 199.581C45.7756 199.466 46.0471 199.24 46.2578 199.003C47.8847 197.189 46.9724 193.838 44.6744 193.038C44.0901 192.836 44.0727 193.106 44.0749 193.529C44.0835 194.433 44.077 195.339 44.077 196.242H44.0792Z" fill="#E9D8B3"/>
<path d="M48.2736 118.273C48.2628 120.981 46.5338 122.806 44.075 122.778C43.2604 122.769 43.0063 122.445 43.0085 121.672C43.0128 119.722 42.9781 117.769 42.9238 115.818C42.8912 114.661 42.4785 114.443 41.4598 114.98C39.3094 116.112 38.875 119.1 40.6213 120.788C40.7517 120.914 40.8907 121.029 41.0275 121.146C41.3816 121.453 41.4858 121.837 41.1687 122.187C40.8364 122.556 40.4606 122.385 40.1131 122.12C38.497 120.89 38.0213 119.224 38.3406 117.304C38.7989 114.55 41.0384 112.932 43.9273 113.21C46.5077 113.457 48.2845 115.527 48.2736 118.271V118.273ZM44.0815 117.669C44.1336 118.777 44.2162 119.782 44.2183 120.788C44.2183 121.487 44.5767 121.566 45.1132 121.435C45.5412 121.331 45.9039 121.101 46.2101 120.779C47.8696 119.024 47.0616 115.642 44.794 114.797C44.2683 114.602 44.0641 114.713 44.0793 115.284C44.101 116.112 44.0858 116.941 44.0858 117.669H44.0815Z" fill="#E9D8B3"/>
<path d="M40.5515 160.316C42.3218 160.787 43.9791 161.226 45.6342 161.673C46.3727 161.873 47.1091 162.084 47.8411 162.31C48.3037 162.453 48.3037 162.851 48.2038 163.203C48.0539 163.735 47.6651 163.754 47.1699 163.641C44.5655 163.048 41.9807 162.408 39.4828 161.439C37.7082 160.75 35.9097 160.125 34.1177 159.482C33.5856 159.291 33.1598 159.021 33.4226 158.383C33.7007 157.707 34.1916 157.948 34.689 158.148C35.8532 158.615 37.0479 159.013 38.2034 159.501C38.7443 159.729 39.0832 159.688 39.5241 159.256C41.6853 157.14 44.4808 156.261 47.2741 155.39C47.6999 155.257 47.9671 155.42 48.1234 155.817C48.3211 156.317 48.0626 156.53 47.6304 156.695C46.149 157.255 44.6589 157.798 43.2058 158.424C42.2522 158.832 41.3291 159.334 40.5558 160.318L40.5515 160.316Z" fill="#E9D8B3"/>
<path d="M44.0817 184.237C44.3706 184.261 44.6638 184.25 44.944 184.313C45.6587 184.474 46.0475 184.272 46.0192 183.475C46.0018 182.999 46.1191 182.576 46.7317 182.645C47.3268 182.713 47.2508 183.197 47.177 183.564C47.0162 184.366 47.4767 184.552 48.1045 184.624C48.9299 184.717 49.7553 184.802 50.5785 184.902C51.0846 184.963 51.3583 185.226 51.3083 185.773C51.254 186.368 50.8782 186.457 50.3895 186.396C49.601 186.297 48.7952 186.268 48.0284 186.079C47.1487 185.862 46.925 186.244 46.9315 187C46.9337 187.289 46.9359 187.582 46.8816 187.863C46.8425 188.062 46.6339 188.097 46.445 188.093C46.1517 188.086 45.8672 187.895 45.915 187.658C46.3146 185.671 44.7724 185.925 43.6951 185.773C42.6199 185.621 41.5425 185.838 40.4978 186.142C39.9569 186.301 39.5768 186.618 39.6115 187.211C39.6463 187.78 40.1242 187.949 40.5846 188.086C40.854 188.167 41.1841 188.062 41.3883 188.327C41.5599 188.549 41.5382 188.814 41.4426 189.051C41.3405 189.307 41.1146 189.383 40.8344 189.413C39.6115 189.55 38.5668 188.829 38.3257 187.652C38.0693 186.392 38.8404 185.002 39.9938 184.687C40.4109 184.574 40.8388 184.489 41.2667 184.439C42.1985 184.331 43.1303 184.179 44.0774 184.237H44.0817Z" fill="#E9D8B3"/>
<path d="M43.86 106.009C43.9599 106.009 44.327 105.963 44.6811 106.017C45.526 106.145 46.0864 105.989 46.0343 104.962C46.0125 104.54 46.2602 104.277 46.712 104.312C47.2311 104.349 47.2528 104.753 47.1876 105.109C47.0269 106.002 47.3636 106.308 48.2628 106.3C49.0122 106.293 49.7616 106.502 50.5131 106.597C51.0605 106.667 51.3885 106.899 51.306 107.512C51.2169 108.172 50.802 108.181 50.2742 108.089C49.5292 107.959 48.7711 107.903 48.0239 107.774C47.205 107.635 46.8054 107.859 46.9205 108.774C46.9596 109.078 47.1724 109.566 46.6859 109.714C46.0321 109.914 45.791 109.454 45.8757 108.93C46.0821 107.666 45.45 107.418 44.3726 107.466C43.1106 107.523 41.8421 107.431 40.6084 107.785C40.0523 107.946 39.5766 108.25 39.6179 108.9C39.657 109.514 40.15 109.701 40.6887 109.771C41.1362 109.829 41.5836 109.894 41.5011 110.524C41.4164 111.165 40.9233 111.072 40.5041 111.052C39.4202 111 38.5905 110.214 38.3885 109.08C38.1908 107.976 38.7013 106.993 39.7699 106.539C40.9928 106.019 42.2939 105.972 43.8622 106.004L43.86 106.009Z" fill="#E9D8B3"/>
<path d="M88.4314 149.257C89.4436 149.257 90.4559 149.264 91.4659 149.253C91.8395 149.249 92.0936 149.312 92.0741 149.779C92.0111 151.256 92.2131 152.742 91.909 154.21C91.6071 155.674 90.5145 156.601 89.0223 156.638C88.3077 156.656 87.6386 156.901 86.8697 156.525C85.5903 155.898 84.8953 154.951 84.791 153.597C84.6954 152.34 84.7584 151.069 84.7128 149.807C84.6933 149.262 84.9974 149.251 85.3927 149.255C86.4049 149.266 87.4171 149.26 88.4271 149.26L88.4314 149.257Z" fill="#FFCA64"/>
<path d="M96.8714 149.257C97.7033 149.257 98.5353 149.286 99.3672 149.247C99.9363 149.221 100.232 149.331 100.193 150C100.134 151.01 100.199 152.027 100.149 153.037C100.051 154.983 98.9545 156.011 97.0256 156.026C95.1098 156.039 93.7783 154.916 93.6524 153.093C93.5785 152.014 93.6524 150.923 93.6198 149.84C93.6046 149.331 93.8326 149.24 94.2671 149.251C95.1337 149.273 96.0026 149.257 96.8714 149.257Z" fill="#FFCA64"/>
<path d="M92.4711 109.825C94.7496 109.825 97.0281 109.849 99.3045 109.81C99.967 109.799 100.197 109.982 100.158 110.662C100.102 111.635 100.156 112.614 100.141 113.59C100.099 116.42 98.7897 118.125 96.0268 118.8C93.5723 119.4 91.0852 119.428 88.6199 118.831C86.0155 118.201 84.7427 116.539 84.7253 113.839C84.7188 112.827 84.7883 111.808 84.7036 110.803C84.6319 109.938 84.9751 109.791 85.7462 109.808C87.9878 109.856 90.2294 109.825 92.4711 109.825Z" fill="#FFCA64"/>
<path d="M14.6147 102.806C13.1007 102.806 12.3992 102.187 12.4317 100.89C12.4665 99.5562 13.3136 98.8047 14.7928 98.8003C16.2373 98.796 16.9736 99.4454 16.9866 100.738C17.0018 102.241 16.3502 102.81 14.6125 102.808L14.6147 102.806Z" fill="#FF500D"/>
<path d="M14.6101 139.353C15.0511 139.377 15.3769 139.418 15.6984 139.407C16.5086 139.384 16.943 139.84 17.2254 140.53C17.5164 141.241 17.2601 141.821 16.7583 142.283C15.9742 143.007 15.0163 143.296 13.9607 143.133C13.2178 143.018 12.5727 142.696 12.3186 141.91C12.0536 141.084 12.2903 140.341 12.8008 139.683C13.3308 138.999 14.0888 139.479 14.608 139.349L14.6101 139.353Z" fill="#FF500D"/>
<path d="M15.5088 117.276V112.912C16.6209 113.273 17.1943 114.002 17.1705 115.078C17.1466 116.155 16.6491 116.887 15.5088 117.278V117.276Z" fill="#FF500D"/>
<path d="M15.4419 87.9018C15.4419 87.4326 15.4267 86.9656 15.4484 86.4964C15.4592 86.2684 15.3159 85.9317 15.6482 85.8578C15.8155 85.8209 16.0522 85.9686 16.2173 86.0881C17.5032 87.0156 17.5032 89.0313 16.2217 89.8719C15.7916 90.1542 15.4223 90.3106 15.4658 89.52C15.494 88.9813 15.4723 88.4405 15.4723 87.8996H15.4419V87.9018Z" fill="#FF500D"/>
<path d="M15.4722 147.687C16.4866 148.106 17.0274 148.727 17.1621 149.648C17.2924 150.535 16.9861 151.284 16.2606 151.827C16.0977 151.949 15.8653 152.072 15.685 152.046C15.4114 152.009 15.4765 151.716 15.4765 151.512C15.47 150.291 15.4743 149.068 15.4743 147.687H15.4722Z" fill="#FF500D"/>
<path d="M14.4101 160.547C13.3762 160.692 12.8549 160.051 12.5313 159.241C12.1989 158.407 12.1229 157.517 12.8506 156.828C13.5152 156.2 14.3102 156.328 15.077 156.665C15.405 156.811 15.7329 156.974 16.0218 157.182C16.8212 157.755 17.4228 158.455 17.2121 159.537C16.9993 160.634 16.0436 160.258 15.3702 160.423C15.0596 160.501 14.7294 160.505 14.4101 160.544V160.547Z" fill="#FF500D"/>
<path d="M14.9754 125.578C13.1834 125.597 12.4861 124.998 12.2972 123.549C12.1212 122.209 13.2029 121.205 14.4953 121.553C15.488 121.82 16.372 122.302 16.9498 123.195C17.7014 124.355 17.2973 125.271 15.9463 125.486C15.5227 125.554 15.0883 125.567 14.9754 125.578Z" fill="#FF500D"/>
<path d="M43.6099 145.203C45.8081 145.34 46.9485 146.463 46.9311 148.524C46.9137 150.536 45.5105 151.769 43.3775 151.885C41.0078 152.01 39.7414 150.946 39.4917 148.922C39.2962 147.334 40.1737 145.362 41.9983 145.312C42.5369 145.297 43.0734 145.24 43.6099 145.203Z" fill="#02909C"/>
<path d="M43.7725 211.882C41.7525 211.858 40.4818 211.41 39.8693 209.964C39.2198 208.43 39.676 206.999 40.5144 205.656C40.5709 205.565 40.6425 205.474 40.7273 205.413C41.8198 204.629 45.7361 205.454 46.4334 206.627C47.148 207.831 47.2349 209.084 46.5615 210.333C45.8426 211.666 44.5719 211.875 43.7725 211.882Z" fill="#02909C"/>
<path d="M43.2128 133.617C41.9161 133.58 40.5759 133.208 39.9047 131.727C39.1901 130.152 39.6745 128.697 40.5433 127.326C40.6172 127.209 40.7453 127.044 40.8518 127.04C42.4439 126.988 44.1121 126.46 45.5783 127.407C46.8468 128.228 47.3181 130.052 46.8229 131.477C46.3385 132.872 45.1677 133.602 43.2128 133.615V133.617Z" fill="#02909C"/>
<path d="M44.0817 196.243C44.0817 195.339 44.086 194.433 44.0795 193.53C44.0752 193.104 44.0947 192.835 44.679 193.039C46.9771 193.838 47.8894 197.19 46.2625 199.003C46.0518 199.24 45.7803 199.466 45.4914 199.581C44.5595 199.948 44.1164 199.629 44.1143 198.632C44.1121 197.835 44.1143 197.04 44.1143 196.243C44.1034 196.243 44.0925 196.243 44.0839 196.243H44.0817Z" fill="#02909C"/>
<path d="M44.0815 117.669C44.0815 116.941 44.0967 116.111 44.075 115.284C44.0598 114.712 44.264 114.602 44.7896 114.797C47.0573 115.642 47.8653 119.024 46.2058 120.779C45.8996 121.103 45.539 121.331 45.1089 121.435C44.5724 121.565 44.2162 121.487 44.214 120.788C44.214 119.782 44.1315 118.776 44.0772 117.669H44.0815Z" fill="#02909C"/>
</svg>
