<svg width="170" height="39" viewBox="0 0 170 39" fill="none" xmlns="http://www.w3.org/2000/svg">
<path d="M9.32955 37.9091C8.14015 37.9091 7.09849 37.7538 6.20455 37.4432C5.31061 37.1402 4.55682 36.7235 3.94318 36.1932C3.32955 35.6629 2.85227 35.0682 2.51136 34.4091L4.17045 33.3182C4.42045 33.7576 4.75379 34.1894 5.17045 34.6136C5.5947 35.0379 6.14394 35.3902 6.81818 35.6705C7.5 35.9508 8.33712 36.0909 9.32955 36.0909C10.875 36.0909 12.1212 35.7045 13.0682 34.9318C14.0227 34.1591 14.5 32.9583 14.5 31.3295V27.3977H14.3182C14.0833 27.928 13.7462 28.4583 13.3068 28.9886C12.8674 29.5114 12.2917 29.947 11.5795 30.2955C10.875 30.6439 10 30.8182 8.95455 30.8182C7.56061 30.8182 6.32197 30.4735 5.23864 29.7841C4.16288 29.0947 3.31439 28.1098 2.69318 26.8295C2.07955 25.5417 1.77273 24.0076 1.77273 22.2273C1.77273 20.4621 2.07197 18.9091 2.67045 17.5682C3.27652 16.2273 4.12121 15.1818 5.20455 14.4318C6.28788 13.6818 7.54924 13.3068 8.98864 13.3068C10.0568 13.3068 10.9432 13.4962 11.6477 13.875C12.3523 14.2462 12.9167 14.7083 13.3409 15.2614C13.7727 15.8144 14.1098 16.3523 14.3523 16.875H14.5568V13.5455H16.5341V31.4545C16.5341 32.9318 16.2197 34.1477 15.5909 35.1023C14.9621 36.0568 14.1061 36.7614 13.0227 37.2159C11.9394 37.678 10.7083 37.9091 9.32955 37.9091ZM9.19318 28.9659C10.3144 28.9659 11.2727 28.697 12.0682 28.1591C12.8636 27.6136 13.4735 26.8333 13.8977 25.8182C14.322 24.803 14.5341 23.5947 14.5341 22.1932C14.5341 20.8295 14.3258 19.6212 13.9091 18.5682C13.4924 17.5076 12.8864 16.6742 12.0909 16.0682C11.303 15.4545 10.3371 15.1477 9.19318 15.1477C8.02652 15.1477 7.04167 15.4621 6.23864 16.0909C5.43561 16.7197 4.82955 17.5682 4.42045 18.6364C4.01136 19.697 3.80682 20.8826 3.80682 22.1932C3.80682 23.5265 4.01515 24.7045 4.43182 25.7273C4.84849 26.7424 5.45833 27.5379 6.26136 28.1136C7.06439 28.6818 8.04167 28.9659 9.19318 28.9659ZM26.4333 31.3636C24.9257 31.3636 23.5924 30.9811 22.4333 30.2159C21.2818 29.4508 20.3803 28.3939 19.7288 27.0455C19.0772 25.6894 18.7515 24.125 18.7515 22.3523C18.7515 20.5644 19.0772 18.9924 19.7288 17.6364C20.3803 16.2727 21.2818 15.2121 22.4333 14.4545C23.5924 13.6894 24.9257 13.3068 26.4333 13.3068C27.9409 13.3068 29.2704 13.6894 30.4219 14.4545C31.5734 15.2197 32.475 16.2803 33.1265 17.6364C33.7856 18.9924 34.1151 20.5644 34.1151 22.3523C34.1151 24.125 33.7894 25.6894 33.1378 27.0455C32.4863 28.3939 31.581 29.4508 30.4219 30.2159C29.2704 30.9811 27.9409 31.3636 26.4333 31.3636ZM26.4333 29.5114C27.6454 29.5114 28.6719 29.1856 29.5128 28.5341C30.3538 27.8826 30.9901 27.0152 31.4219 25.9318C31.8613 24.8485 32.081 23.6553 32.081 22.3523C32.081 21.0492 31.8613 19.8523 31.4219 18.7614C30.9901 17.6705 30.3538 16.7955 29.5128 16.1364C28.6719 15.4773 27.6454 15.1477 26.4333 15.1477C25.2288 15.1477 24.2022 15.4773 23.3538 16.1364C22.5128 16.7955 21.8727 17.6705 21.4333 18.7614C21.0015 19.8523 20.7856 21.0492 20.7856 22.3523C20.7856 23.6553 21.0015 24.8485 21.4333 25.9318C21.8727 27.0152 22.5128 27.8826 23.3538 28.5341C24.1947 29.1856 25.2212 29.5114 26.4333 29.5114ZM43.0995 31.3636C41.592 31.3636 40.2586 30.9811 39.0995 30.2159C37.948 29.4508 37.0465 28.3939 36.395 27.0455C35.7435 25.6894 35.4177 24.125 35.4177 22.3523C35.4177 20.5644 35.7435 18.9924 36.395 17.6364C37.0465 16.2727 37.948 15.2121 39.0995 14.4545C40.2586 13.6894 41.592 13.3068 43.0995 13.3068C44.6071 13.3068 45.9367 13.6894 47.0882 14.4545C48.2397 15.2197 49.1412 16.2803 49.7927 17.6364C50.4518 18.9924 50.7814 20.5644 50.7814 22.3523C50.7814 24.125 50.4556 25.6894 49.8041 27.0455C49.1526 28.3939 48.2473 29.4508 47.0882 30.2159C45.9367 30.9811 44.6071 31.3636 43.0995 31.3636ZM43.0995 29.5114C44.3117 29.5114 45.3382 29.1856 46.1791 28.5341C47.02 27.8826 47.6564 27.0152 48.0882 25.9318C48.5276 24.8485 48.7473 23.6553 48.7473 22.3523C48.7473 21.0492 48.5276 19.8523 48.0882 18.7614C47.6564 17.6705 47.02 16.7955 46.1791 16.1364C45.3382 15.4773 44.3117 15.1477 43.0995 15.1477C41.895 15.1477 40.8685 15.4773 40.02 16.1364C39.1791 16.7955 38.5389 17.6705 38.0995 18.7614C37.6677 19.8523 37.4518 21.0492 37.4518 22.3523C37.4518 23.6553 37.6677 24.8485 38.0995 25.9318C38.5389 27.0152 39.1791 27.8826 40.02 28.5341C40.8609 29.1856 41.8874 29.5114 43.0995 29.5114ZM59.2658 31.3636C57.834 31.3636 56.5802 30.9848 55.5044 30.2273C54.4287 29.4697 53.5878 28.4129 52.9817 27.0568C52.3832 25.7008 52.084 24.1212 52.084 22.3182C52.084 20.5227 52.3832 18.9508 52.9817 17.6023C53.5878 16.2462 54.4325 15.1932 55.5158 14.4432C56.5991 13.6856 57.8605 13.3068 59.2999 13.3068C60.3605 13.3068 61.2431 13.4962 61.9476 13.875C62.6522 14.2462 63.2166 14.7083 63.6408 15.2614C64.065 15.8144 64.3946 16.3523 64.6294 16.875H64.8112V7.72727H66.8453V31H64.8681V27.7614H64.6294C64.3946 28.2917 64.0612 28.8371 63.6294 29.3977C63.1976 29.9508 62.6256 30.4167 61.9135 30.7955C61.209 31.1742 60.3264 31.3636 59.2658 31.3636ZM59.5044 29.5114C60.6332 29.5114 61.5953 29.2045 62.3908 28.5909C63.1862 27.9697 63.7923 27.1174 64.209 26.0341C64.6332 24.9432 64.8453 23.6932 64.8453 22.2841C64.8453 20.8902 64.637 19.6591 64.2203 18.5909C63.8037 17.5152 63.1976 16.6742 62.4022 16.0682C61.6067 15.4545 60.6408 15.1477 59.5044 15.1477C58.3378 15.1477 57.3529 15.4659 56.5499 16.1023C55.7544 16.7311 55.1484 17.5833 54.7317 18.6591C54.3226 19.7348 54.1181 20.9432 54.1181 22.2841C54.1181 23.6402 54.3264 24.8636 54.7431 25.9545C55.1597 27.0455 55.7658 27.9129 56.5612 28.5568C57.3643 29.1932 58.3453 29.5114 59.5044 29.5114ZM69.9803 31V13.5455H73.2644V16.3182H73.4463C73.7644 15.3788 74.325 14.6402 75.1281 14.1023C75.9387 13.5568 76.8553 13.2841 77.8781 13.2841C78.0902 13.2841 78.3402 13.2917 78.6281 13.3068C78.9235 13.322 79.1546 13.3409 79.3213 13.3636V16.6136C79.1849 16.5758 78.9425 16.5341 78.594 16.4886C78.2455 16.4356 77.897 16.4091 77.5485 16.4091C76.7455 16.4091 76.0296 16.5795 75.4008 16.9205C74.7796 17.2538 74.2872 17.7197 73.9235 18.3182C73.5599 18.9091 73.3781 19.5833 73.3781 20.3409V31H69.9803ZM86.9193 31.3523C85.1996 31.3523 83.7186 30.9848 82.4761 30.25C81.2413 29.5076 80.2867 28.4659 79.6125 27.125C78.9458 25.7765 78.6125 24.197 78.6125 22.3864C78.6125 20.5985 78.9458 19.0227 79.6125 17.6591C80.2867 16.2955 81.2261 15.2311 82.4307 14.4659C83.6428 13.7008 85.0595 13.3182 86.6807 13.3182C87.6655 13.3182 88.6201 13.4811 89.5443 13.8068C90.4686 14.1326 91.2981 14.6439 92.033 15.3409C92.7678 16.0379 93.3474 16.9432 93.7716 18.0568C94.1958 19.1629 94.408 20.5076 94.408 22.0909V23.2955H80.533V20.75H91.0784C91.0784 19.8561 90.8966 19.0644 90.533 18.375C90.1693 17.678 89.658 17.1288 88.9989 16.7273C88.3474 16.3258 87.5822 16.125 86.7034 16.125C85.7489 16.125 84.9155 16.3598 84.2034 16.8295C83.4989 17.2917 82.9534 17.8977 82.567 18.6477C82.1883 19.3902 81.9989 20.197 81.9989 21.0682V23.0568C81.9989 24.2235 82.2034 25.2159 82.6125 26.0341C83.0292 26.8523 83.6087 27.4773 84.3511 27.9091C85.0936 28.3333 85.961 28.5455 86.9534 28.5455C87.5974 28.5455 88.1845 28.4545 88.7148 28.2727C89.2451 28.0833 89.7034 27.803 90.0898 27.4318C90.4761 27.0606 90.7716 26.6023 90.9761 26.0568L94.192 26.6364C93.9345 27.5833 93.4724 28.4129 92.8057 29.125C92.1466 29.8295 91.317 30.3788 90.317 30.7727C89.3246 31.1591 88.192 31.3523 86.9193 31.3523ZM103.29 31.3523C101.601 31.3523 100.146 30.9697 98.9265 30.2045C97.7144 29.4318 96.7825 28.3674 96.131 27.0114C95.4795 25.6553 95.1537 24.1023 95.1537 22.3523C95.1537 20.5795 95.4871 19.0152 96.1537 17.6591C96.8204 16.2955 97.7598 15.2311 98.9719 14.4659C100.184 13.7008 101.612 13.3182 103.256 13.3182C104.582 13.3182 105.764 13.5644 106.801 14.0568C107.839 14.5417 108.676 15.2235 109.313 16.1023C109.957 16.9811 110.339 18.0076 110.461 19.1818H107.154C106.972 18.3636 106.555 17.6591 105.904 17.0682C105.26 16.4773 104.396 16.1818 103.313 16.1818C102.366 16.1818 101.536 16.4318 100.824 16.9318C100.12 17.4242 99.5704 18.1288 99.1765 19.0455C98.7825 19.9545 98.5856 21.0303 98.5856 22.2727C98.5856 23.5455 98.7787 24.6439 99.1651 25.5682C99.5515 26.4924 100.097 27.2083 100.801 27.7159C101.514 28.2235 102.351 28.4773 103.313 28.4773C103.957 28.4773 104.54 28.3598 105.063 28.125C105.593 27.8826 106.036 27.5379 106.392 27.0909C106.756 26.6439 107.01 26.1061 107.154 25.4773H110.461C110.339 26.6061 109.972 27.6136 109.358 28.5C108.745 29.3864 107.923 30.0833 106.892 30.5909C105.87 31.0985 104.669 31.3523 103.29 31.3523ZM119.206 31.3523C117.57 31.3523 116.142 30.9773 114.922 30.2273C113.703 29.4773 112.756 28.428 112.081 27.0795C111.407 25.7311 111.07 24.1553 111.07 22.3523C111.07 20.5417 111.407 18.9583 112.081 17.6023C112.756 16.2462 113.703 15.1932 114.922 14.4432C116.142 13.6932 117.57 13.3182 119.206 13.3182C120.843 13.3182 122.271 13.6932 123.49 14.4432C124.71 15.1932 125.657 16.2462 126.331 17.6023C127.006 18.9583 127.343 20.5417 127.343 22.3523C127.343 24.1553 127.006 25.7311 126.331 27.0795C125.657 28.428 124.71 29.4773 123.49 30.2273C122.271 30.9773 120.843 31.3523 119.206 31.3523ZM119.218 28.5C120.278 28.5 121.157 28.2197 121.854 27.6591C122.551 27.0985 123.066 26.3523 123.4 25.4205C123.74 24.4886 123.911 23.4621 123.911 22.3409C123.911 21.2273 123.74 20.2045 123.4 19.2727C123.066 18.3333 122.551 17.5795 121.854 17.0114C121.157 16.4432 120.278 16.1591 119.218 16.1591C118.15 16.1591 117.263 16.4432 116.559 17.0114C115.862 17.5795 115.343 18.3333 115.002 19.2727C114.668 20.2045 114.502 21.2273 114.502 22.3409C114.502 23.4621 114.668 24.4886 115.002 25.4205C115.343 26.3523 115.862 27.0985 116.559 27.6591C117.263 28.2197 118.15 28.5 119.218 28.5ZM128.895 31V13.5455H132.157V16.3864H132.373C132.736 15.4242 133.331 14.6742 134.157 14.1364C134.982 13.5909 135.971 13.3182 137.123 13.3182C138.289 13.3182 139.267 13.5909 140.054 14.1364C140.85 14.6818 141.437 15.4318 141.816 16.3864H141.998C142.414 15.4545 143.077 14.7121 143.986 14.1591C144.895 13.5985 145.979 13.3182 147.236 13.3182C148.82 13.3182 150.111 13.8144 151.111 14.8068C152.119 15.7992 152.623 17.2955 152.623 19.2955V31H149.225V19.6136C149.225 18.4318 148.903 17.5758 148.259 17.0455C147.615 16.5152 146.846 16.25 145.952 16.25C144.846 16.25 143.986 16.5909 143.373 17.2727C142.759 17.947 142.452 18.8144 142.452 19.875V31H139.066V19.3977C139.066 18.4508 138.77 17.6894 138.179 17.1136C137.589 16.5379 136.82 16.25 135.873 16.25C135.229 16.25 134.634 16.4205 134.089 16.7614C133.551 17.0947 133.115 17.5606 132.782 18.1591C132.456 18.7576 132.293 19.4508 132.293 20.2386V31H128.895ZM168.016 17.8068L164.937 18.3523C164.808 17.9583 164.603 17.5833 164.323 17.2273C164.05 16.8712 163.679 16.5795 163.209 16.3523C162.74 16.125 162.152 16.0114 161.448 16.0114C160.486 16.0114 159.683 16.2273 159.039 16.6591C158.395 17.0833 158.073 17.6326 158.073 18.3068C158.073 18.8902 158.289 19.3598 158.721 19.7159C159.152 20.072 159.849 20.3636 160.812 20.5909L163.584 21.2273C165.19 21.5985 166.387 22.1705 167.175 22.9432C167.963 23.7159 168.357 24.7197 168.357 25.9545C168.357 27 168.054 27.9318 167.448 28.75C166.849 29.5606 166.012 30.197 164.937 30.6591C163.868 31.1212 162.63 31.3523 161.221 31.3523C159.266 31.3523 157.671 30.9356 156.437 30.1023C155.202 29.2614 154.444 28.0682 154.164 26.5227L157.448 26.0227C157.652 26.8788 158.073 27.5265 158.709 27.9659C159.346 28.3977 160.175 28.6136 161.198 28.6136C162.312 28.6136 163.202 28.3826 163.868 27.9205C164.535 27.4508 164.868 26.8788 164.868 26.2045C164.868 25.6591 164.664 25.2008 164.255 24.8295C163.853 24.4583 163.236 24.178 162.402 23.9886L159.448 23.3409C157.819 22.9697 156.615 22.3788 155.834 21.5682C155.062 20.7576 154.675 19.7311 154.675 18.4886C154.675 17.4583 154.963 16.5568 155.539 15.7841C156.115 15.0114 156.91 14.4091 157.925 13.9773C158.94 13.5379 160.103 13.3182 161.414 13.3182C163.3 13.3182 164.785 13.7273 165.868 14.5455C166.952 15.3561 167.668 16.4432 168.016 17.8068Z" fill="#4E3D2E"/>
</svg>
